{"glyphs":{"0":{"ha":661,"x_min":0,"x_max":661,"o":"m 661 642 q 594 586 618 628 q 571 493 571 544 q 594 400 571 442 q 661 344 618 358 l 661 240 l 599 179 q 482 69 525 107 q 383 0 439 32 l 272 0 q 180 66 221 31 q 75 165 139 101 q 0 240 42 200 l 0 344 q 67 400 43 358 q 90 493 90 442 q 67 586 90 544 q 0 642 43 628 l 0 746 q 131 875 68 824 q 272 972 193 926 l 383 972 q 510 884 454 931 q 661 746 565 838 l 661 642 m 199 776 q 200 754 193 765 q 233 743 207 743 l 421 743 q 454 754 447 743 q 456 776 461 765 l 356 922 l 299 922 l 199 776 m 469 344 l 469 418 l 469 568 l 469 642 l 469 657 q 428 679 469 679 l 233 679 q 192 657 192 679 l 192 642 l 192 568 l 192 418 l 192 344 l 192 329 q 233 307 192 307 l 428 307 q 469 329 469 307 l 469 344 m 456 210 q 454 232 461 221 q 421 243 447 243 l 233 243 q 200 232 207 243 q 199 210 193 221 l 299 50 l 356 50 l 456 210 z "},"1":{"ha":735,"x_min":0,"x_max":735,"o":"m 735 344 l 735 240 q 629 109 693 175 q 489 0 565 43 l 465 46 l 546 219 q 538 240 546 236 q 503 244 531 244 l 246 244 l 244 244 l 235 244 q 197 240 204 244 q 189 219 189 236 l 269 46 l 246 0 q 106 109 169 43 q 0 240 42 175 l 0 344 l 189 344 l 189 328 q 195 310 189 313 q 214 307 201 307 q 231 307 226 307 l 244 307 l 246 307 l 265 307 q 289 313 285 307 q 293 349 293 319 l 293 440 l 293 868 q 289 903 293 897 q 265 910 285 910 l 261 910 l 189 767 l 189 642 l 0 642 l 0 746 q 106 867 42 806 q 246 972 169 929 l 435 972 l 435 910 l 435 864 l 435 440 l 435 353 q 439 314 435 321 q 463 307 443 307 l 507 307 q 538 310 531 307 q 546 328 546 314 l 546 344 l 735 344 z "},"2":{"ha":635,"x_min":0,"x_max":635,"o":"m 189 339 l 189 322 q 197 307 189 315 q 229 299 204 299 l 389 299 l 404 299 q 438 306 429 299 q 446 319 446 314 l 446 344 l 635 344 l 635 240 q 529 109 593 175 q 389 0 465 43 l 365 46 l 446 215 q 432 232 440 228 q 400 236 424 236 l 389 236 l 233 236 q 202 232 210 236 q 189 215 194 228 l 271 46 l 247 0 q 106 109 171 43 q 0 240 42 175 l 0 344 l 136 438 q 314 558 182 469 q 446 650 446 647 l 446 757 l 374 907 l 263 907 l 189 757 l 190 642 l 0 642 l 0 746 q 106 865 42 804 q 247 969 171 926 l 389 969 q 529 865 465 926 q 635 746 593 804 l 635 642 l 189 339 z "},"3":{"ha":728,"x_min":0,"x_max":728,"o":"m 728 642 q 672 575 724 607 q 550 519 621 543 l 465 490 l 550 467 q 672 411 621 443 q 728 344 724 379 l 728 240 q 419 0 567 86 l 308 0 q 0 240 161 86 l 0 344 l 222 344 l 222 329 q 264 307 222 307 l 458 307 q 500 329 500 307 l 500 344 q 470 413 500 390 q 365 457 440 436 l 365 519 q 465 558 440 544 q 495 585 490 571 q 500 642 500 599 l 500 657 q 458 679 500 679 l 264 679 q 222 657 222 679 l 222 642 l 0 642 l 0 746 q 147 869 75 818 q 308 972 218 919 l 419 972 q 581 869 510 919 q 728 746 653 818 l 728 642 m 458 743 q 492 754 485 743 q 493 776 499 765 l 393 922 l 336 922 l 236 776 q 238 754 231 765 q 271 743 244 743 l 458 743 m 493 210 q 492 232 499 221 q 458 243 485 243 l 271 243 q 238 232 244 243 q 236 210 231 221 l 336 50 l 393 50 l 493 210 z "},"4":{"ha":628,"x_min":0,"x_max":628,"o":"m 628 642 q 561 586 585 628 q 538 493 538 544 q 561 400 538 442 q 628 344 585 358 l 628 240 q 535 109 597 175 q 386 0 474 43 l 358 63 l 436 297 l 436 401 q 428 419 436 408 q 394 429 419 429 l 285 429 l 233 429 l 192 429 l 83 429 q 68 558 83 490 q 0 642 53 625 l 0 746 q 92 867 31 806 q 242 972 154 929 l 269 910 q 192 706 265 904 l 192 540 q 206 518 197 524 q 238 513 214 513 l 285 513 l 390 513 q 422 518 414 513 q 436 540 431 524 l 436 706 q 358 910 363 904 l 386 972 q 535 867 474 929 q 628 746 597 806 l 628 642 z "},"5":{"ha":661,"x_min":0,"x_max":661,"o":"m 469 642 l 469 657 q 428 679 469 679 l 233 679 q 192 657 192 679 l 192 642 l 192 558 q 200 541 192 551 q 233 531 208 531 l 283 531 l 378 531 l 424 531 l 435 531 l 469 531 l 574 531 q 571 493 571 518 q 594 400 571 442 q 661 344 618 358 l 661 240 q 534 109 607 175 q 385 0 461 43 l 292 0 q 138 109 215 43 q 0 240 60 175 l 0 344 l 176 344 l 178 238 l 292 60 l 385 60 l 469 238 l 469 240 l 469 419 q 461 437 469 426 q 428 447 453 447 l 378 447 l 283 447 l 238 447 l 226 447 l 192 447 l 88 447 q 90 485 90 460 q 67 583 90 539 q 0 642 43 628 l 0 746 q 151 884 96 838 q 278 972 207 931 l 389 972 q 503 892 454 935 q 635 771 553 850 l 661 746 l 661 642 l 469 642 m 428 743 q 461 754 454 743 q 463 776 468 765 l 363 922 l 306 922 l 206 776 q 207 754 200 765 q 240 743 214 743 l 428 743 z "},"6":{"ha":657,"x_min":0,"x_max":657,"o":"m 469 642 l 469 657 q 428 679 469 679 l 233 679 q 192 657 192 679 l 192 642 l 192 554 l 192 544 q 206 522 197 528 q 238 517 214 517 l 283 517 l 378 517 l 424 517 l 435 517 l 469 517 l 574 517 q 569 478 569 499 q 592 394 569 431 q 657 344 614 358 l 657 240 q 519 96 578 150 q 389 0 460 42 l 278 0 q 179 69 222 32 q 63 179 136 107 l 0 240 l 0 344 q 67 396 44 358 q 90 482 90 433 l 90 490 q 76 554 88 525 l 79 554 q 48 610 68 586 q 0 642 28 633 l 0 746 q 151 884 96 838 q 278 972 207 931 l 389 972 q 492 901 449 938 q 611 790 536 864 l 657 746 l 657 642 l 469 642 m 428 743 q 461 754 454 743 q 463 776 468 765 l 363 922 l 306 922 l 206 776 q 207 754 200 765 q 240 743 214 743 l 428 743 m 465 388 q 455 417 465 404 q 435 433 444 431 l 428 433 l 378 433 l 283 433 l 240 433 q 216 419 231 433 q 201 388 201 404 l 201 196 l 304 54 l 361 54 l 465 196 l 465 388 z "},"7":{"ha":735,"x_min":0,"x_max":735,"o":"m 735 344 l 735 240 q 629 112 693 176 q 489 4 565 47 l 465 50 l 546 224 q 538 244 546 240 q 503 249 531 249 l 246 249 l 244 249 l 235 249 q 197 244 204 249 q 189 224 189 240 l 269 50 l 246 4 q 106 112 169 47 q 0 240 42 176 l 0 344 l 189 344 l 189 332 q 195 314 189 317 q 214 311 201 311 q 231 311 226 311 l 244 311 l 246 311 l 265 311 q 289 317 285 311 q 293 353 293 324 l 293 382 l 207 382 l 207 444 l 293 444 q 425 872 425 858 q 421 908 425 901 q 397 914 417 914 l 290 914 q 178 775 178 813 q 184 758 178 767 q 190 746 190 750 l 190 639 l 253 521 l 229 475 q 94 563 153 518 q 0 642 35 607 l 0 746 q 135 881 61 822 q 272 975 208 940 l 567 975 l 567 914 l 567 868 q 435 444 435 449 l 524 444 l 524 382 l 435 382 l 435 357 q 439 318 435 325 q 463 311 443 311 l 507 311 q 538 315 531 311 q 546 332 546 318 l 546 344 l 735 344 z "},"8":{"ha":728,"x_min":0,"x_max":728,"o":"m 728 642 q 672 575 724 607 q 550 519 621 543 l 465 492 l 550 467 q 672 411 621 443 q 728 344 724 379 l 728 240 q 578 109 661 175 q 419 0 496 43 l 308 0 q 149 109 232 43 q 0 240 67 175 l 0 344 q 56 411 4 379 q 178 467 107 443 l 263 492 l 178 519 q 56 575 107 543 q 0 642 4 607 l 0 746 q 149 867 67 806 q 308 972 232 929 l 419 972 q 578 867 496 929 q 728 746 661 806 l 728 642 m 408 540 q 482 583 458 554 q 506 642 506 611 l 504 749 l 419 913 l 308 913 l 224 749 l 222 642 q 246 583 222 611 q 319 540 269 554 l 364 524 l 408 540 m 506 344 q 474 413 506 389 q 365 457 442 436 l 363 457 q 254 413 286 436 q 222 344 222 389 l 224 238 l 308 60 l 419 60 l 504 238 l 506 344 z "},"9":{"ha":657,"x_min":0,"x_max":657,"o":"m 657 642 q 590 586 614 628 q 567 493 567 544 q 590 400 567 442 q 657 344 614 358 l 657 240 l 594 179 q 478 69 521 107 q 379 0 435 32 l 268 0 q 178 65 218 29 q 82 158 138 100 q 0 240 0 240 l 0 344 l 188 344 l 188 329 q 229 307 188 307 l 424 307 q 465 329 465 307 l 465 344 l 465 418 l 465 428 q 451 450 460 444 q 419 456 443 456 l 374 456 l 279 456 l 233 456 l 222 456 l 188 456 l 83 456 q 88 496 88 475 q 65 588 88 547 q 0 642 43 628 l 0 746 q 131 876 69 825 q 268 972 192 928 l 379 972 q 506 884 450 931 q 657 746 561 838 l 657 642 m 192 585 q 202 555 192 568 q 222 539 213 542 l 229 539 l 417 539 q 441 553 426 539 q 456 585 456 568 l 456 776 l 353 918 l 296 918 l 192 776 l 192 585 m 451 210 q 450 232 457 221 q 417 243 443 243 l 229 243 q 196 232 203 243 q 194 210 189 221 l 294 50 l 351 50 l 451 210 z "}," ":{"ha":278,"x_min":0,"x_max":0,"o":""},"A":{"ha":739,"x_min":0,"x_max":739,"o":"m 739 642 q 672 586 696 628 q 649 493 649 544 q 672 400 649 442 q 739 344 696 358 l 739 240 q 647 109 708 175 q 497 0 585 43 l 469 63 l 547 297 l 547 401 q 539 419 547 408 q 506 429 531 429 l 306 429 l 233 429 q 200 419 208 429 q 192 401 192 408 l 192 297 l 269 63 l 242 0 q 92 109 154 43 q 0 240 31 175 l 0 344 q 67 400 43 358 q 90 493 90 442 q 67 586 90 544 q 0 642 44 628 l 0 746 q 92 867 31 806 q 242 972 154 929 l 497 972 q 647 867 585 929 q 739 746 708 806 l 739 642 m 547 706 q 469 910 474 904 l 269 910 q 192 706 265 904 l 192 540 q 206 518 197 524 q 238 513 214 513 l 306 513 l 501 513 q 533 518 525 513 q 547 540 542 524 l 547 706 z "},"Á":{"ha":739,"x_min":0,"x_max":739,"o":"m 582 1158 q 530 1080 563 1119 q 464 1010 497 1040 l 274 1008 l 274 1111 l 465 1111 l 547 1176 l 582 1158 m 739 642 q 672 586 696 628 q 649 493 649 544 q 672 400 649 442 q 739 344 696 358 l 739 240 q 647 109 708 175 q 497 0 585 43 l 469 63 l 547 297 l 547 401 q 539 419 547 408 q 506 429 531 429 l 306 429 l 233 429 q 200 419 208 429 q 192 401 192 408 l 192 297 l 269 63 l 242 0 q 92 109 154 43 q 0 240 31 175 l 0 344 q 67 400 43 358 q 90 493 90 442 q 67 586 90 544 q 0 642 44 628 l 0 746 q 92 867 31 806 q 242 972 154 929 l 497 972 q 647 867 585 929 q 739 746 708 806 l 739 642 m 547 706 q 469 910 474 904 l 269 910 q 192 706 265 904 l 192 540 q 206 518 197 524 q 238 513 214 513 l 306 513 l 501 513 q 533 518 525 513 q 547 540 542 524 l 547 706 z "},"À":{"ha":739,"x_min":0,"x_max":739,"o":"m 281 1010 q 215 1080 247 1040 q 163 1158 182 1119 l 197 1176 l 279 1111 l 471 1111 l 471 1008 l 281 1010 m 739 642 q 672 586 696 628 q 649 493 649 544 q 672 400 649 442 q 739 344 696 358 l 739 240 q 647 109 708 175 q 497 0 585 43 l 469 63 l 547 297 l 547 401 q 539 419 547 408 q 506 429 531 429 l 306 429 l 233 429 q 200 419 208 429 q 192 401 192 408 l 192 297 l 269 63 l 242 0 q 92 109 154 43 q 0 240 31 175 l 0 344 q 67 400 43 358 q 90 493 90 442 q 67 586 90 544 q 0 642 44 628 l 0 746 q 92 867 31 806 q 242 972 154 929 l 497 972 q 647 867 585 929 q 739 746 708 806 l 739 642 m 547 706 q 469 910 474 904 l 269 910 q 192 706 265 904 l 192 540 q 206 518 197 524 q 238 513 214 513 l 306 513 l 501 513 q 533 518 525 513 q 547 540 542 524 l 547 706 z "},"Æ":{"ha":1107,"x_min":0,"x_max":1107,"o":"m 919 746 q 924 753 919 747 q 929 772 929 760 q 831 910 929 819 l 597 910 q 684 827 647 871 q 739 746 721 783 l 739 642 q 682 601 704 631 q 651 532 660 572 q 665 517 654 521 q 696 513 675 513 l 775 513 l 775 429 l 692 429 q 661 422 671 429 q 739 344 683 363 l 739 240 q 684 151 721 199 q 596 63 647 103 l 836 63 q 931 204 931 149 q 924 230 931 221 q 918 240 918 239 l 1107 240 q 978 101 1046 164 q 854 0 910 39 l 497 0 l 469 63 l 547 297 l 547 401 q 539 419 547 408 q 506 429 531 429 l 306 429 l 233 429 q 200 419 208 429 q 192 401 192 408 l 192 297 l 269 63 l 242 0 q 92 109 154 43 q 0 240 31 175 l 0 344 q 67 400 43 358 q 90 493 90 442 q 67 586 90 544 q 0 642 44 628 l 0 746 q 92 867 31 806 q 242 972 154 929 l 849 972 q 976 881 907 939 q 1107 746 1046 822 l 1107 642 q 897 518 1044 603 l 871 556 l 918 642 l 919 746 m 501 513 q 533 518 525 513 q 547 540 542 524 l 547 706 q 469 910 474 904 l 269 910 q 192 706 265 904 l 192 540 q 206 518 197 524 q 238 513 214 513 l 306 513 l 501 513 m 1057 240 l 918 240 l 917 344 l 869 422 l 897 461 q 1107 344 1044 376 l 1107 240 l 1057 240 z "},"B":{"ha":739,"x_min":0,"x_max":744,"o":"m 510 514 q 628 453 565 494 q 744 344 690 411 l 744 240 q 633 109 700 175 q 490 0 567 43 l 242 0 q 92 109 154 43 q 0 240 31 175 l 0 344 q 67 400 43 358 q 90 493 90 442 q 67 586 90 544 q 0 642 44 628 l 0 746 q 93 867 31 806 q 243 972 156 929 l 424 972 q 564 867 500 929 q 669 746 628 806 l 669 642 l 671 642 q 510 514 614 571 m 244 843 q 192 706 194 708 l 192 575 q 206 553 197 558 q 238 547 214 547 l 414 547 q 471 600 456 583 q 486 625 486 617 q 483 633 486 628 q 481 642 481 638 l 479 746 l 400 913 l 271 913 l 244 843 m 556 344 q 559 356 556 349 q 563 368 563 364 q 539 403 563 382 q 450 464 515 425 l 233 464 q 200 453 208 464 q 192 436 192 443 l 192 297 l 269 63 l 467 63 l 554 238 l 556 344 z "},"C":{"ha":739,"x_min":0,"x_max":739,"o":"m 551 746 q 556 753 551 747 q 561 772 561 760 q 463 910 561 819 l 318 910 q 265 811 288 865 q 240 707 243 757 l 239 265 q 264 161 242 215 q 317 63 286 107 l 468 63 q 563 204 563 149 q 556 230 563 221 q 550 240 550 239 l 549 344 l 501 422 l 529 461 q 739 344 676 376 l 739 240 q 610 101 678 164 q 486 0 542 39 l 289 0 q 126 109 201 43 q 0 240 50 175 l 0 344 q 67 400 43 358 q 90 493 90 442 q 67 586 90 544 q 0 642 44 628 l 0 746 q 126 867 50 806 q 290 972 203 929 l 481 972 q 608 881 539 939 q 739 746 678 822 l 739 642 q 529 518 676 603 l 503 556 l 550 642 l 551 746 z "},"Ç":{"ha":739,"x_min":0,"x_max":739,"o":"m 551 746 q 556 753 551 747 q 561 772 561 760 q 463 910 561 819 l 318 910 q 265 811 288 865 q 240 707 243 757 l 239 265 q 264 161 242 215 q 317 63 286 107 l 468 63 q 563 204 563 149 q 556 230 563 221 q 550 240 550 239 l 549 344 l 501 422 l 529 461 q 739 344 676 376 l 739 240 q 610 101 678 164 q 486 0 542 39 l 392 0 q 483 -60 447 -32 q 532 -108 518 -89 l 532 -249 l 301 -247 q 222 -169 264 -217 q 147 -65 181 -122 l 182 -47 l 300 -106 l 390 -107 l 289 0 q 126 109 201 43 q 0 240 50 175 l 0 344 q 67 400 43 358 q 90 493 90 442 q 67 586 90 544 q 0 642 44 628 l 0 746 q 126 867 50 806 q 290 972 203 929 l 481 972 q 608 881 539 939 q 739 746 678 822 l 739 642 q 529 518 676 603 l 503 556 l 550 642 l 551 746 z "},"D":{"ha":838,"x_min":0,"x_max":838,"o":"m 838 344 l 838 240 q 708 101 776 164 q 585 0 640 39 l 239 0 q 90 109 151 43 q 0 240 29 175 l 0 344 q 67 400 43 358 q 90 493 90 442 q 67 586 90 544 q 0 642 44 628 l 0 746 q 76 884 29 821 q 176 972 122 947 l 251 972 q 376 881 308 939 q 506 746 444 822 l 506 642 q 483 624 490 636 q 475 596 475 611 q 481 571 475 582 l 649 344 l 838 344 m 567 63 q 657 182 657 133 q 653 201 657 196 q 649 208 649 207 l 656 210 l 649 208 l 413 524 l 315 642 l 315 746 q 322 755 315 747 q 328 776 328 763 q 235 910 328 825 l 192 910 l 192 710 l 192 706 l 192 297 l 267 63 l 567 63 z "},"E":{"ha":739,"x_min":0,"x_max":739,"o":"m 551 746 q 556 753 551 747 q 561 772 561 760 q 463 910 561 819 l 318 910 q 265 811 288 865 q 240 707 243 757 l 240 532 q 253 512 244 517 q 285 507 263 507 l 353 507 l 353 424 l 281 424 q 250 416 260 424 q 239 399 240 408 l 239 265 q 264 161 242 215 q 317 63 286 107 l 468 63 q 563 204 563 149 q 556 230 563 221 q 550 240 550 239 l 549 344 l 501 422 l 529 461 q 739 344 676 376 l 739 240 q 610 101 678 164 q 486 0 542 39 l 289 0 q 126 109 201 43 q 0 240 50 175 l 0 344 q 67 400 43 358 q 90 493 90 442 q 67 586 90 544 q 0 642 44 628 l 0 746 q 126 867 50 806 q 290 972 203 929 l 481 972 q 608 881 539 939 q 739 746 678 822 l 739 642 q 529 518 676 603 l 503 556 l 550 642 l 551 746 z "},"É":{"ha":739,"x_min":0,"x_max":739,"o":"m 599 1158 q 547 1080 579 1119 q 481 1010 514 1040 l 290 1008 l 290 1111 l 482 1111 l 564 1176 l 599 1158 m 551 746 q 556 753 551 747 q 561 772 561 760 q 463 910 561 819 l 318 910 q 265 811 288 865 q 240 707 243 757 l 240 532 q 253 512 244 517 q 285 507 263 507 l 353 507 l 353 424 l 281 424 q 250 416 260 424 q 239 399 240 408 l 239 265 q 264 161 242 215 q 317 63 286 107 l 468 63 q 563 204 563 149 q 556 230 563 221 q 550 240 550 239 l 549 344 l 501 422 l 529 461 q 739 344 676 376 l 739 240 q 610 101 678 164 q 486 0 542 39 l 289 0 q 126 109 201 43 q 0 240 50 175 l 0 344 q 67 400 43 358 q 90 493 90 442 q 67 586 90 544 q 0 642 44 628 l 0 746 q 126 867 50 806 q 290 972 203 929 l 481 972 q 608 881 539 939 q 739 746 678 822 l 739 642 q 529 518 676 603 l 503 556 l 550 642 l 551 746 z "},"Ê":{"ha":739,"x_min":0,"x_max":739,"o":"m 294 1007 l 106 1007 l 106 1083 q 211 1153 147 1117 q 351 1219 275 1190 l 421 1219 q 561 1153 497 1190 q 667 1083 625 1117 l 667 1007 l 478 1007 l 476 1086 l 397 1190 l 375 1190 l 296 1086 l 294 1007 m 551 746 q 556 753 551 747 q 561 772 561 760 q 463 910 561 819 l 318 910 q 265 811 288 865 q 240 707 243 757 l 240 532 q 253 512 244 517 q 285 507 263 507 l 353 507 l 353 424 l 281 424 q 250 416 260 424 q 239 399 240 408 l 239 265 q 264 161 242 215 q 317 63 286 107 l 468 63 q 563 204 563 149 q 556 230 563 221 q 550 240 550 239 l 549 344 l 501 422 l 529 461 q 739 344 676 376 l 739 240 q 610 101 678 164 q 486 0 542 39 l 289 0 q 126 109 201 43 q 0 240 50 175 l 0 344 q 67 400 43 358 q 90 493 90 442 q 67 586 90 544 q 0 642 44 628 l 0 746 q 126 867 50 806 q 290 972 203 929 l 481 972 q 608 881 539 939 q 739 746 678 822 l 739 642 q 529 518 676 603 l 503 556 l 550 642 l 551 746 z "},"Ë":{"ha":739,"x_min":0,"x_max":739,"o":"m 338 1029 l 196 1011 l 196 1153 l 338 1135 l 338 1029 m 571 1011 l 429 1029 l 429 1135 l 571 1153 l 571 1011 m 551 746 q 556 753 551 747 q 561 772 561 760 q 463 910 561 819 l 318 910 q 265 811 288 865 q 240 707 243 757 l 240 532 q 253 512 244 517 q 285 507 263 507 l 353 507 l 353 424 l 281 424 q 250 416 260 424 q 239 399 240 408 l 239 265 q 264 161 242 215 q 317 63 286 107 l 468 63 q 563 204 563 149 q 556 230 563 221 q 550 240 550 239 l 549 344 l 501 422 l 529 461 q 739 344 676 376 l 739 240 q 610 101 678 164 q 486 0 542 39 l 289 0 q 126 109 201 43 q 0 240 50 175 l 0 344 q 67 400 43 358 q 90 493 90 442 q 67 586 90 544 q 0 642 44 628 l 0 746 q 126 867 50 806 q 290 972 203 929 l 481 972 q 608 881 539 939 q 739 746 678 822 l 739 642 q 529 518 676 603 l 503 556 l 550 642 l 551 746 z "},"È":{"ha":739,"x_min":0,"x_max":739,"o":"m 292 1010 q 226 1080 258 1040 q 174 1158 193 1119 l 208 1176 l 290 1111 l 482 1111 l 482 1008 l 292 1010 m 551 746 q 556 753 551 747 q 561 772 561 760 q 463 910 561 819 l 318 910 q 265 811 288 865 q 240 707 243 757 l 240 532 q 253 512 244 517 q 285 507 263 507 l 353 507 l 353 424 l 281 424 q 250 416 260 424 q 239 399 240 408 l 239 265 q 264 161 242 215 q 317 63 286 107 l 468 63 q 563 204 563 149 q 556 230 563 221 q 550 240 550 239 l 549 344 l 501 422 l 529 461 q 739 344 676 376 l 739 240 q 610 101 678 164 q 486 0 542 39 l 289 0 q 126 109 201 43 q 0 240 50 175 l 0 344 q 67 400 43 358 q 90 493 90 442 q 67 586 90 544 q 0 642 44 628 l 0 746 q 126 867 50 806 q 290 972 203 929 l 481 972 q 608 881 539 939 q 739 746 678 822 l 739 642 q 529 518 676 603 l 503 556 l 550 642 l 551 746 z "},"F":{"ha":657,"x_min":0,"x_max":657,"o":"m 386 972 q 523 881 450 939 q 657 746 596 822 l 657 642 q 447 518 594 603 l 421 556 l 468 642 l 468 746 q 474 760 468 750 q 481 781 481 771 q 368 913 481 824 l 269 913 q 192 706 265 907 l 192 535 q 206 513 197 518 q 238 507 214 507 l 306 507 l 306 424 l 233 424 q 200 413 208 424 q 192 396 192 403 l 192 297 l 269 63 l 242 0 q 92 109 154 43 q 0 240 31 175 l 0 344 q 67 400 43 358 q 90 493 90 442 q 67 586 90 544 q 0 642 44 628 l 0 746 q 92 867 31 806 q 242 972 154 929 l 386 972 z "},"G":{"ha":874,"x_min":0,"x_max":874,"o":"m 874 344 l 874 240 q 740 101 813 164 q 603 0 667 39 l 242 0 q 92 109 154 43 q 0 240 31 175 l 0 344 q 67 400 43 358 q 90 493 90 442 q 67 586 90 544 q 0 642 44 628 l 0 746 q 93 867 31 806 q 243 972 156 929 l 424 972 q 522 893 461 950 q 660 746 583 836 l 660 642 q 450 518 597 603 l 424 556 l 471 642 l 471 746 q 477 755 471 747 q 483 779 483 763 q 399 910 483 826 l 271 910 l 192 706 l 192 297 l 269 63 l 438 63 q 346 151 388 103 q 278 242 304 200 l 278 344 q 342 418 292 394 q 456 442 393 442 l 786 442 q 816 367 786 388 q 872 344 846 347 l 874 344 m 585 63 q 697 201 697 151 q 691 224 697 213 q 685 240 685 236 l 685 283 l 683 331 q 675 380 683 364 q 648 401 667 396 q 588 406 629 406 l 538 406 q 475 391 493 404 q 457 344 457 378 l 458 239 l 538 63 l 585 63 z "},"H":{"ha":690,"x_min":0,"x_max":690,"o":"m 690 642 q 624 586 647 628 q 600 493 600 544 q 624 400 600 442 q 690 344 647 358 l 690 240 q 598 109 660 175 q 449 0 536 43 l 421 63 l 499 297 l 499 401 q 490 419 499 408 q 457 429 482 429 l 368 429 l 233 429 q 200 419 208 429 q 192 401 192 408 l 192 297 l 269 63 l 242 0 q 92 109 154 43 q 0 240 31 175 l 0 344 q 67 400 43 358 q 90 493 90 442 q 67 586 90 544 q 0 642 44 628 l 0 746 q 92 867 31 806 q 242 972 154 929 l 269 910 q 192 706 265 904 l 192 540 q 206 518 197 524 q 238 513 214 513 l 368 513 l 453 513 q 485 518 476 513 q 499 540 493 524 l 499 706 q 421 910 425 904 l 449 972 q 598 867 536 929 q 690 746 660 806 l 690 642 z "},"I":{"ha":735,"x_min":0,"x_max":735,"o":"m 546 642 l 546 658 q 538 676 546 672 q 507 679 531 679 l 463 679 q 439 672 443 679 q 435 633 435 665 l 435 440 l 435 353 q 439 314 435 321 q 463 307 443 307 l 507 307 q 538 310 531 307 q 546 328 546 314 l 546 344 l 735 344 l 735 240 q 629 109 693 175 q 489 0 565 43 l 465 46 l 546 219 q 538 240 546 236 q 503 244 531 244 l 246 244 l 244 244 l 235 244 q 197 240 204 244 q 189 219 189 236 l 269 46 l 246 0 q 106 109 169 43 q 0 240 42 175 l 0 344 l 189 344 l 189 328 q 195 310 189 313 q 214 307 201 307 q 231 307 226 307 l 244 307 l 246 307 l 265 307 q 289 313 285 307 q 293 349 293 319 l 293 440 l 293 638 q 289 673 293 667 q 265 679 285 679 l 246 679 l 244 679 l 231 679 l 215 679 q 194 676 200 679 q 189 658 189 672 l 189 642 l 0 642 l 0 746 q 106 867 42 806 q 246 972 169 929 l 269 926 l 189 767 q 197 746 189 750 q 235 742 204 742 l 244 742 l 246 742 l 503 742 q 538 746 531 742 q 546 767 546 750 l 465 926 l 489 972 q 629 867 565 929 q 735 746 693 806 l 735 642 l 546 642 z "},"Î":{"ha":735,"x_min":0,"x_max":735,"o":"m 278 1007 l 89 1007 l 89 1083 q 194 1153 131 1117 q 335 1219 258 1190 l 404 1219 q 544 1153 481 1190 q 650 1083 608 1117 l 650 1007 l 461 1007 l 460 1086 l 381 1190 l 358 1190 l 279 1086 l 278 1007 m 546 642 l 546 658 q 538 676 546 672 q 507 679 531 679 l 463 679 q 439 672 443 679 q 435 633 435 665 l 435 440 l 435 353 q 439 314 435 321 q 463 307 443 307 l 507 307 q 538 310 531 307 q 546 328 546 314 l 546 344 l 735 344 l 735 240 q 629 109 693 175 q 489 0 565 43 l 465 46 l 546 219 q 538 240 546 236 q 503 244 531 244 l 246 244 l 244 244 l 235 244 q 197 240 204 244 q 189 219 189 236 l 269 46 l 246 0 q 106 109 169 43 q 0 240 42 175 l 0 344 l 189 344 l 189 328 q 195 310 189 313 q 214 307 201 307 q 231 307 226 307 l 244 307 l 246 307 l 265 307 q 289 313 285 307 q 293 349 293 319 l 293 440 l 293 638 q 289 673 293 667 q 265 679 285 679 l 246 679 l 244 679 l 231 679 l 215 679 q 194 676 200 679 q 189 658 189 672 l 189 642 l 0 642 l 0 746 q 106 867 42 806 q 246 972 169 929 l 269 926 l 189 767 q 197 746 189 750 q 235 742 204 742 l 244 742 l 246 742 l 503 742 q 538 746 531 742 q 546 767 546 750 l 465 926 l 489 972 q 629 867 565 929 q 735 746 693 806 l 735 642 l 546 642 z "},"Ï":{"ha":735,"x_min":0,"x_max":735,"o":"m 319 1029 l 178 1011 l 178 1153 l 319 1135 l 319 1029 m 553 1011 l 411 1029 l 411 1135 l 553 1153 l 553 1011 m 546 642 l 546 658 q 538 676 546 672 q 507 679 531 679 l 463 679 q 439 672 443 679 q 435 633 435 665 l 435 440 l 435 353 q 439 314 435 321 q 463 307 443 307 l 507 307 q 538 310 531 307 q 546 328 546 314 l 546 344 l 735 344 l 735 240 q 629 109 693 175 q 489 0 565 43 l 465 46 l 546 219 q 538 240 546 236 q 503 244 531 244 l 246 244 l 244 244 l 235 244 q 197 240 204 244 q 189 219 189 236 l 269 46 l 246 0 q 106 109 169 43 q 0 240 42 175 l 0 344 l 189 344 l 189 328 q 195 310 189 313 q 214 307 201 307 q 231 307 226 307 l 244 307 l 246 307 l 265 307 q 289 313 285 307 q 293 349 293 319 l 293 440 l 293 638 q 289 673 293 667 q 265 679 285 679 l 246 679 l 244 679 l 231 679 l 215 679 q 194 676 200 679 q 189 658 189 672 l 189 642 l 0 642 l 0 746 q 106 867 42 806 q 246 972 169 929 l 269 926 l 189 767 q 197 746 189 750 q 235 742 204 742 l 244 742 l 246 742 l 503 742 q 538 746 531 742 q 546 767 546 750 l 465 926 l 489 972 q 629 867 565 929 q 735 746 693 806 l 735 642 l 546 642 z "},"Ì":{"ha":735,"x_min":0,"x_max":735,"o":"m 278 1010 q 212 1080 244 1040 q 160 1158 179 1119 l 194 1176 l 276 1111 l 468 1111 l 468 1008 l 278 1010 m 546 642 l 546 658 q 538 676 546 672 q 507 679 531 679 l 463 679 q 439 672 443 679 q 435 633 435 665 l 435 440 l 435 353 q 439 314 435 321 q 463 307 443 307 l 507 307 q 538 310 531 307 q 546 328 546 314 l 546 344 l 735 344 l 735 240 q 629 109 693 175 q 489 0 565 43 l 465 46 l 546 219 q 538 240 546 236 q 503 244 531 244 l 246 244 l 244 244 l 235 244 q 197 240 204 244 q 189 219 189 236 l 269 46 l 246 0 q 106 109 169 43 q 0 240 42 175 l 0 344 l 189 344 l 189 328 q 195 310 189 313 q 214 307 201 307 q 231 307 226 307 l 244 307 l 246 307 l 265 307 q 289 313 285 307 q 293 349 293 319 l 293 440 l 293 638 q 289 673 293 667 q 265 679 285 679 l 246 679 l 244 679 l 231 679 l 215 679 q 194 676 200 679 q 189 658 189 672 l 189 642 l 0 642 l 0 746 q 106 867 42 806 q 246 972 169 929 l 269 926 l 189 767 q 197 746 189 750 q 235 742 204 742 l 244 742 l 246 742 l 503 742 q 538 746 531 742 q 546 767 546 750 l 465 926 l 489 972 q 629 867 565 929 q 735 746 693 806 l 735 642 l 546 642 z "},"J":{"ha":715,"x_min":-1,"x_max":715,"o":"m 715 642 q 649 586 672 628 q 625 493 625 544 q 649 400 625 442 q 715 344 672 358 l 715 240 q 623 109 685 175 q 474 0 561 43 l 271 0 q 133 101 207 39 q -1 240 60 164 l 0 240 l 0 344 q 106 445 42 392 q 246 542 169 499 l 269 496 l 190 347 l 189 240 q 183 224 189 236 q 176 201 176 213 q 289 63 176 151 l 446 63 l 524 297 l 524 706 q 446 910 450 904 l 474 972 q 623 867 561 929 q 715 746 685 806 l 715 642 z "},"K":{"ha":697,"x_min":0,"x_max":699,"o":"m 697 344 l 697 240 q 603 109 663 175 q 468 0 544 43 l 444 63 l 507 240 l 508 344 q 510 353 508 350 q 511 358 511 356 q 488 388 511 367 q 388 468 464 410 l 233 468 q 200 458 208 468 q 192 440 192 447 l 192 297 l 269 63 l 242 0 q 92 109 154 43 q 0 240 31 175 l 0 344 q 67 400 43 358 q 90 493 90 442 q 67 586 90 544 q 0 642 44 628 l 0 746 q 92 867 31 806 q 242 972 154 929 l 269 910 q 192 706 265 904 l 192 579 q 206 557 197 563 q 238 551 214 551 l 367 551 q 435 624 435 607 q 431 632 435 626 q 428 642 428 638 l 426 746 l 364 910 l 388 972 q 523 867 464 929 q 617 746 582 806 l 617 642 l 618 642 q 460 514 561 571 q 583 452 519 493 q 699 344 646 411 l 697 344 z "},"L":{"ha":715,"x_min":0,"x_max":717,"o":"m 717 240 q 582 101 656 164 q 444 0 508 39 l 242 0 q 92 109 154 43 q 0 240 31 175 l 0 344 q 67 400 43 358 q 90 493 90 442 q 67 586 90 544 q 0 642 44 628 l 0 746 q 92 867 31 806 q 242 972 154 929 l 269 910 q 192 706 265 904 l 192 297 l 269 63 l 426 63 q 539 201 539 151 q 533 224 539 213 q 526 240 526 236 l 525 347 l 446 496 l 469 542 q 610 445 546 499 q 715 344 674 392 l 715 240 l 717 240 z "},"M":{"ha":804,"x_min":0,"x_max":804,"o":"m 804 642 q 738 586 761 628 q 714 493 714 544 q 738 400 714 442 q 804 344 761 358 l 804 240 q 712 109 774 175 q 563 0 650 43 l 535 63 q 613 267 539 68 l 613 703 q 604 725 613 714 q 579 736 596 736 q 559 729 567 736 q 544 708 551 722 l 447 482 l 357 482 l 260 708 q 245 729 253 722 q 225 736 238 736 q 200 725 208 736 q 192 703 192 714 l 192 267 q 269 63 265 68 l 242 0 q 92 109 154 43 q 0 240 31 175 l 0 344 q 67 400 43 358 q 90 493 90 442 q 67 586 90 544 q 0 642 44 628 l 0 746 q 92 867 31 806 q 242 972 154 929 l 286 910 l 403 601 l 518 910 l 563 972 q 712 867 650 929 q 804 746 774 806 l 804 642 z "},"N":{"ha":718,"x_min":0,"x_max":718,"o":"m 718 642 q 651 586 675 628 q 628 493 628 544 q 651 400 628 442 q 718 344 675 358 l 718 240 q 626 109 688 175 q 476 0 564 43 l 449 63 l 324 490 l 258 708 q 225 736 251 736 q 200 725 208 736 q 192 703 192 714 l 192 297 l 269 63 l 242 0 q 92 109 154 43 q 0 240 31 175 l 0 344 q 67 400 43 358 q 90 493 90 442 q 67 586 90 544 q 0 642 44 628 l 0 746 q 92 867 31 806 q 242 972 154 929 l 269 910 l 392 492 l 460 264 q 493 236 467 236 q 518 247 510 236 q 526 269 526 258 l 526 706 q 449 910 453 904 l 476 972 q 626 867 564 929 q 718 746 688 806 l 718 642 z "},"O":{"ha":761,"x_min":0,"x_max":761,"o":"m 761 642 q 694 586 718 628 q 671 493 671 544 q 694 400 671 442 q 761 344 718 358 l 761 240 q 669 109 731 175 q 519 0 607 43 l 242 0 q 92 109 154 43 q 0 240 31 175 l 0 344 q 67 400 43 358 q 90 493 90 442 q 67 586 90 544 q 0 642 44 628 l 0 746 q 93 867 31 806 q 243 972 156 929 l 518 972 q 668 867 606 929 q 761 746 731 806 l 761 642 m 569 706 q 490 910 494 904 l 271 910 q 192 706 267 904 l 192 297 l 269 63 l 492 63 l 569 297 l 569 706 z "},"Ó":{"ha":761,"x_min":0,"x_max":761,"o":"m 246 1011 q 167 1089 208 1042 q 92 1193 125 1136 l 126 1211 l 244 1153 l 335 1151 l 233 1258 l 333 1260 q 426 1198 390 1226 q 476 1150 463 1169 l 476 1010 l 246 1011 m 761 642 q 694 586 718 628 q 671 493 671 544 q 694 400 671 442 q 761 344 718 358 l 761 240 q 669 109 731 175 q 519 0 607 43 l 242 0 q 92 109 154 43 q 0 240 31 175 l 0 344 q 67 400 43 358 q 90 493 90 442 q 67 586 90 544 q 0 642 44 628 l 0 746 q 93 867 31 806 q 243 972 156 929 l 518 972 q 668 867 606 929 q 761 746 731 806 l 761 642 m 569 706 q 490 910 494 904 l 271 910 q 192 706 267 904 l 192 297 l 269 63 l 492 63 l 569 297 l 569 706 z "},"Ô":{"ha":761,"x_min":0,"x_max":761,"o":"m 290 1007 l 101 1007 l 101 1083 q 207 1153 143 1117 q 347 1219 271 1190 l 417 1219 q 557 1153 493 1190 q 663 1083 621 1117 l 663 1007 l 474 1007 l 472 1086 l 393 1190 l 371 1190 l 292 1086 l 290 1007 m 761 642 q 694 586 718 628 q 671 493 671 544 q 694 400 671 442 q 761 344 718 358 l 761 240 q 669 109 731 175 q 519 0 607 43 l 242 0 q 92 109 154 43 q 0 240 31 175 l 0 344 q 67 400 43 358 q 90 493 90 442 q 67 586 90 544 q 0 642 44 628 l 0 746 q 93 867 31 806 q 243 972 156 929 l 518 972 q 668 867 606 929 q 761 746 731 806 l 761 642 m 569 706 q 490 910 494 904 l 271 910 q 192 706 267 904 l 192 297 l 269 63 l 492 63 l 569 297 l 569 706 z "},"Ö":{"ha":761,"x_min":0,"x_max":761,"o":"m 328 1029 l 186 1011 l 186 1153 l 328 1135 l 328 1029 m 561 1011 l 419 1029 l 419 1135 l 561 1153 l 561 1011 m 761 642 q 694 586 718 628 q 671 493 671 544 q 694 400 671 442 q 761 344 718 358 l 761 240 q 669 109 731 175 q 519 0 607 43 l 242 0 q 92 109 154 43 q 0 240 31 175 l 0 344 q 67 400 43 358 q 90 493 90 442 q 67 586 90 544 q 0 642 44 628 l 0 746 q 93 867 31 806 q 243 972 156 929 l 518 972 q 668 867 606 929 q 761 746 731 806 l 761 642 m 569 706 q 490 910 494 904 l 271 910 q 192 706 267 904 l 192 297 l 269 63 l 492 63 l 569 297 l 569 706 z "},"Ò":{"ha":761,"x_min":0,"x_max":761,"o":"m 286 1010 q 220 1080 253 1040 q 168 1158 188 1119 l 203 1176 l 285 1111 l 476 1111 l 476 1008 l 286 1010 m 761 642 q 694 586 718 628 q 671 493 671 544 q 694 400 671 442 q 761 344 718 358 l 761 240 q 669 109 731 175 q 519 0 607 43 l 242 0 q 92 109 154 43 q 0 240 31 175 l 0 344 q 67 400 43 358 q 90 493 90 442 q 67 586 90 544 q 0 642 44 628 l 0 746 q 93 867 31 806 q 243 972 156 929 l 518 972 q 668 867 606 929 q 761 746 731 806 l 761 642 m 569 706 q 490 910 494 904 l 271 910 q 192 706 267 904 l 192 297 l 269 63 l 492 63 l 569 297 l 569 706 z "},"Œ":{"ha":1100,"x_min":0,"x_max":1100,"o":"m 913 746 q 917 753 913 747 q 922 772 922 760 q 824 910 922 819 l 618 910 q 706 827 669 871 q 761 746 743 783 l 761 642 q 699 594 722 629 q 672 514 676 560 q 696 513 678 513 l 775 513 l 775 429 l 692 429 l 681 429 q 761 344 704 363 l 761 240 q 706 151 743 199 q 618 63 669 103 l 829 63 q 924 204 924 149 q 917 230 924 221 q 911 240 911 239 l 910 344 l 863 422 l 890 461 q 1100 344 1038 376 l 1100 240 q 971 101 1039 164 q 847 0 903 39 l 242 0 q 92 109 154 43 q 0 240 31 175 l 0 344 q 67 400 43 358 q 90 493 90 442 q 67 586 90 544 q 0 642 44 628 l 0 746 q 93 867 31 806 q 243 972 156 929 l 842 972 q 969 881 900 939 q 1100 746 1039 822 l 1100 642 q 890 518 1038 603 l 864 556 l 911 642 l 913 746 m 492 63 l 569 297 l 569 706 q 490 910 494 904 l 271 910 q 192 706 267 904 l 192 297 l 269 63 l 492 63 z "},"P":{"ha":615,"x_min":0,"x_max":615,"o":"m 344 972 q 481 881 408 939 q 615 746 554 822 l 615 642 q 510 520 574 582 q 369 415 446 458 l 233 415 q 200 405 208 415 q 192 388 192 394 l 192 297 l 269 63 l 242 0 q 92 109 154 43 q 0 240 31 175 l 0 344 q 67 400 43 358 q 90 493 90 442 q 67 586 90 544 q 0 642 44 628 l 0 746 q 92 867 31 806 q 242 972 154 929 l 344 972 m 426 746 q 433 765 433 751 q 409 821 433 785 q 324 910 385 857 l 271 910 q 176 744 176 808 q 192 706 176 718 l 192 526 q 206 504 197 510 q 238 499 214 499 l 363 499 l 425 639 l 426 746 z "},"Q":{"ha":976,"x_min":0,"x_max":976,"o":"m 767 468 q 976 344 914 383 l 976 240 q 840 101 915 164 q 697 0 764 39 l 242 0 q 92 109 154 43 q 0 240 31 175 l 0 344 q 67 400 43 358 q 90 493 90 442 q 67 586 90 544 q 0 642 44 628 l 0 746 q 93 867 31 806 q 243 972 156 929 l 474 972 q 624 867 561 929 q 717 746 686 806 l 717 642 q 650 586 674 628 q 626 493 626 544 q 650 400 626 442 q 717 344 674 358 l 717 240 q 660 150 697 199 q 569 60 622 101 l 679 60 q 799 204 799 156 q 794 226 799 215 q 789 240 789 238 l 788 344 l 740 431 l 767 468 m 447 63 l 525 297 l 525 706 q 446 910 450 904 l 271 910 q 192 706 267 904 l 192 297 l 269 63 l 447 63 z "},"R":{"ha":718,"x_min":0,"x_max":718,"o":"m 476 511 q 597 445 532 486 q 718 344 661 404 l 718 240 q 616 109 679 175 q 476 0 553 43 l 453 65 l 528 240 l 529 344 q 532 353 529 349 q 535 361 535 358 q 512 392 535 371 q 422 464 489 414 l 233 464 q 200 453 208 464 q 192 436 192 443 l 192 297 l 269 65 l 242 0 q 92 109 154 43 q 0 240 31 175 l 0 344 q 67 400 43 358 q 90 493 90 442 q 67 586 90 544 q 0 642 44 628 l 0 746 q 89 867 28 806 q 238 972 150 929 l 393 972 q 533 867 469 929 q 638 746 597 806 l 638 642 l 639 642 q 565 569 606 600 q 476 511 525 539 m 192 575 q 206 553 197 558 q 238 547 214 547 l 388 547 q 456 622 456 607 q 452 632 456 626 q 449 642 449 638 l 447 746 l 369 913 l 265 913 q 209 852 226 913 q 192 706 192 792 l 192 575 z "},"S":{"ha":728,"x_min":0,"x_max":728,"o":"m 506 642 l 506 657 q 464 679 506 679 l 269 679 q 228 657 228 679 l 228 642 q 249 582 228 610 q 319 540 271 554 l 424 503 l 550 467 q 672 411 621 443 q 728 344 724 379 l 728 240 q 419 0 567 86 l 308 0 q 0 240 161 86 l 0 344 l 222 344 l 222 329 q 264 307 222 307 l 458 307 q 500 329 500 307 l 500 344 q 470 413 500 390 q 365 457 440 436 l 178 519 q 56 575 107 543 q 0 642 4 607 l 0 746 q 147 869 75 818 q 308 972 218 919 l 419 972 q 581 869 510 919 q 728 746 653 818 l 728 642 l 506 642 m 457 743 q 490 754 483 743 q 492 776 497 765 l 392 910 l 335 910 l 235 776 q 236 754 229 765 q 269 743 243 743 l 457 743 m 493 210 q 492 232 499 221 q 458 243 485 243 l 271 243 q 238 232 244 243 q 236 210 231 221 l 336 63 l 393 63 l 493 210 z "},"T":{"ha":971,"x_min":0,"x_max":971,"o":"m 782 642 l 782 767 l 710 910 l 575 910 q 551 903 556 910 q 547 864 547 896 l 547 442 l 547 440 l 547 365 q 551 327 547 335 q 571 318 554 319 q 587 320 582 318 q 594 329 592 322 l 594 347 l 783 347 l 785 240 l 864 49 l 840 3 q 700 112 764 46 q 594 243 636 178 q 586 253 594 247 q 554 258 578 258 l 471 258 l 401 258 q 368 251 376 258 q 360 240 360 244 q 254 109 318 175 q 114 0 190 43 l 90 46 l 169 238 l 171 344 l 360 344 l 360 339 q 365 322 361 326 q 383 318 369 318 q 401 326 397 319 q 406 361 406 333 l 406 440 l 406 442 l 406 868 q 401 903 406 897 q 378 910 397 910 l 261 910 l 189 767 l 189 642 l 0 642 l 0 746 q 106 867 42 806 q 246 972 169 929 l 725 972 q 865 867 801 929 q 971 746 929 806 l 971 642 l 782 642 m 406 318 l 389 318 l 406 318 m 550 318 l 567 318 l 550 318 z "},"U":{"ha":785,"x_min":0,"x_max":785,"o":"m 785 642 q 718 586 742 628 q 694 493 694 544 q 718 400 694 442 q 785 344 742 358 l 785 240 q 692 109 754 175 q 543 0 631 43 l 242 0 q 92 109 154 43 q 0 240 31 175 l 0 344 q 67 400 43 358 q 90 493 90 442 q 67 586 90 544 q 0 642 44 628 l 0 746 q 92 867 31 806 q 242 972 154 929 l 269 910 q 192 706 265 904 l 192 297 l 269 63 l 515 63 l 593 297 l 593 706 q 515 910 519 904 l 543 972 q 692 867 631 929 q 785 746 754 806 l 785 642 z "},"Ú":{"ha":785,"x_min":0,"x_max":785,"o":"m 608 1158 q 556 1080 589 1119 q 490 1010 524 1040 l 300 1008 l 300 1111 l 492 1111 l 574 1176 l 608 1158 m 785 642 q 718 586 742 628 q 694 493 694 544 q 718 400 694 442 q 785 344 742 358 l 785 240 q 692 109 754 175 q 543 0 631 43 l 242 0 q 92 109 154 43 q 0 240 31 175 l 0 344 q 67 400 43 358 q 90 493 90 442 q 67 586 90 544 q 0 642 44 628 l 0 746 q 92 867 31 806 q 242 972 154 929 l 269 910 q 192 706 265 904 l 192 297 l 269 63 l 515 63 l 593 297 l 593 706 q 515 910 519 904 l 543 972 q 692 867 631 929 q 785 746 754 806 l 785 642 z "},"V":{"ha":782,"x_min":0,"x_max":782,"o":"m 540 972 q 690 867 628 929 q 782 746 751 806 l 782 642 q 692 566 728 625 q 656 447 656 507 q 672 383 656 410 q 721 344 688 356 l 721 240 q 628 109 690 175 q 479 0 567 43 l 303 0 q 153 109 215 43 q 61 240 92 175 l 61 344 q 110 383 94 356 q 126 447 126 410 q 90 566 126 507 q 0 642 54 625 l 0 746 q 92 867 31 806 q 242 972 154 929 l 269 910 q 193 710 264 903 q 226 513 200 693 q 253 297 253 332 l 331 63 l 451 63 l 529 297 q 556 513 529 332 q 589 710 582 693 q 513 910 518 903 l 540 972 z "},"W":{"ha":804,"x_min":0,"x_max":804,"o":"m 804 642 q 738 586 761 628 q 714 493 714 544 q 738 400 714 442 q 804 344 761 358 l 804 240 q 712 109 774 175 q 563 0 650 43 l 518 63 l 403 371 l 286 63 l 242 0 q 92 109 154 43 q 0 240 31 175 l 0 344 q 67 400 43 358 q 90 493 90 442 q 67 586 90 544 q 0 642 44 628 l 0 746 q 92 867 31 806 q 242 972 154 929 l 269 910 q 192 706 265 904 l 192 269 q 200 247 192 258 q 225 236 208 236 q 245 243 238 236 q 260 264 253 250 l 357 490 l 447 490 l 544 264 q 559 243 551 250 q 579 236 567 236 q 604 247 596 236 q 613 269 613 258 l 613 706 q 535 910 539 904 l 563 972 q 712 867 650 929 q 804 746 774 806 l 804 642 z "},"X":{"ha":967,"x_min":0,"x_max":967,"o":"m 844 329 q 847 218 844 222 l 951 50 l 925 0 q 617 240 778 86 l 617 344 q 588 413 617 389 q 483 457 558 436 q 379 413 408 436 q 350 344 350 389 l 350 240 q 42 0 189 86 l 15 50 l 119 218 q 122 329 122 222 l 122 344 q 206 420 151 386 q 322 474 261 454 l 381 490 l 300 513 q 200 566 249 532 q 122 642 151 600 l 122 657 q 119 768 122 764 l 0 921 l 26 972 q 181 872 111 924 q 328 746 250 821 l 328 642 q 356 574 328 597 q 454 532 383 551 q 485 529 468 529 q 514 532 494 529 q 611 575 583 551 q 639 642 639 599 l 639 746 q 786 872 717 821 q 940 972 856 924 l 967 921 l 847 768 q 844 657 844 764 l 844 642 q 767 566 815 600 q 667 513 718 532 l 586 490 l 644 474 q 760 420 706 454 q 844 344 815 386 l 844 329 z "},"Y":{"ha":846,"x_min":-1,"x_max":846,"o":"m 518 465 q 500 451 504 460 q 496 421 496 443 l 496 108 q 501 76 496 85 q 522 63 506 68 l 572 63 l 657 238 l 657 344 l 846 344 l 846 240 q 740 109 804 175 q 600 0 676 43 l 246 0 q 106 109 169 43 q 0 240 42 175 l 0 344 l 189 344 l 189 238 l 274 63 l 326 63 q 344 71 333 63 q 354 104 354 79 l 354 425 q 339 461 354 454 l 175 504 q 54 571 106 535 q -1 642 3 607 l -1 747 q 105 867 40 806 q 246 972 169 929 l 269 926 l 190 750 l 189 642 q 360 514 189 561 l 485 514 q 656 642 656 561 l 654 750 l 575 926 l 599 972 q 740 867 675 929 q 846 747 804 806 l 846 642 q 790 571 842 607 q 669 504 739 535 l 518 465 z "},"Z":{"ha":635,"x_min":0,"x_max":635,"o":"m 190 326 l 189 215 l 271 46 l 247 0 q 106 108 171 43 q 0 238 42 174 l 0 342 l 136 432 q 446 639 446 636 l 446 643 q 438 656 446 649 q 404 664 429 664 l 389 664 l 229 664 q 190 643 190 664 l 190 639 l 0 639 l 0 743 q 106 865 42 803 q 247 969 171 926 l 271 924 l 189 757 l 189 747 q 202 731 194 735 q 233 726 210 726 l 389 726 l 400 726 q 432 731 424 726 q 446 747 440 735 l 446 757 l 365 924 l 389 969 q 529 865 465 926 q 635 743 593 803 l 635 639 l 190 326 m 233 236 q 202 232 210 236 q 189 215 194 228 l 190 319 q 229 299 190 299 l 389 299 l 404 299 q 438 306 429 299 q 446 319 446 314 l 446 342 l 635 342 l 635 238 q 529 108 593 174 q 389 0 465 43 l 365 46 l 446 215 q 432 232 440 228 q 400 236 424 236 l 389 236 l 233 236 z "},"a":{"ha":739,"x_min":0,"x_max":739,"o":"m 739 642 q 672 586 696 628 q 649 493 649 544 q 672 400 649 442 q 739 344 696 358 l 739 240 q 647 109 708 175 q 497 0 585 43 l 469 63 l 547 297 l 547 401 q 539 419 547 408 q 506 429 531 429 l 306 429 l 233 429 q 200 419 208 429 q 192 401 192 408 l 192 297 l 269 63 l 242 0 q 92 109 154 43 q 0 240 31 175 l 0 344 q 67 400 43 358 q 90 493 90 442 q 67 586 90 544 q 0 642 44 628 l 0 746 q 92 867 31 806 q 242 972 154 929 l 497 972 q 647 867 585 929 q 739 746 708 806 l 739 642 m 547 706 q 469 910 474 904 l 269 910 q 192 706 265 904 l 192 540 q 206 518 197 524 q 238 513 214 513 l 306 513 l 501 513 q 533 518 525 513 q 547 540 542 524 l 547 706 z "},"á":{"ha":739,"x_min":0,"x_max":739,"o":"m 582 1158 q 530 1080 563 1119 q 464 1010 497 1040 l 274 1008 l 274 1111 l 465 1111 l 547 1176 l 582 1158 m 739 642 q 672 586 696 628 q 649 493 649 544 q 672 400 649 442 q 739 344 696 358 l 739 240 q 647 109 708 175 q 497 0 585 43 l 469 63 l 547 297 l 547 401 q 539 419 547 408 q 506 429 531 429 l 306 429 l 233 429 q 200 419 208 429 q 192 401 192 408 l 192 297 l 269 63 l 242 0 q 92 109 154 43 q 0 240 31 175 l 0 344 q 67 400 43 358 q 90 493 90 442 q 67 586 90 544 q 0 642 44 628 l 0 746 q 92 867 31 806 q 242 972 154 929 l 497 972 q 647 867 585 929 q 739 746 708 806 l 739 642 m 547 706 q 469 910 474 904 l 269 910 q 192 706 265 904 l 192 540 q 206 518 197 524 q 238 513 214 513 l 306 513 l 501 513 q 533 518 525 513 q 547 540 542 524 l 547 706 z "},"à":{"ha":739,"x_min":0,"x_max":739,"o":"m 281 1010 q 215 1080 247 1040 q 163 1158 182 1119 l 197 1176 l 279 1111 l 471 1111 l 471 1008 l 281 1010 m 739 642 q 672 586 696 628 q 649 493 649 544 q 672 400 649 442 q 739 344 696 358 l 739 240 q 647 109 708 175 q 497 0 585 43 l 469 63 l 547 297 l 547 401 q 539 419 547 408 q 506 429 531 429 l 306 429 l 233 429 q 200 419 208 429 q 192 401 192 408 l 192 297 l 269 63 l 242 0 q 92 109 154 43 q 0 240 31 175 l 0 344 q 67 400 43 358 q 90 493 90 442 q 67 586 90 544 q 0 642 44 628 l 0 746 q 92 867 31 806 q 242 972 154 929 l 497 972 q 647 867 585 929 q 739 746 708 806 l 739 642 m 547 706 q 469 910 474 904 l 269 910 q 192 706 265 904 l 192 540 q 206 518 197 524 q 238 513 214 513 l 306 513 l 501 513 q 533 518 525 513 q 547 540 542 524 l 547 706 z "},"æ":{"ha":1107,"x_min":0,"x_max":1107,"o":"m 919 746 q 924 753 919 747 q 929 772 929 760 q 831 910 929 819 l 597 910 q 684 827 647 871 q 739 746 721 783 l 739 642 q 682 601 704 631 q 651 532 660 572 q 665 517 654 521 q 696 513 675 513 l 775 513 l 775 429 l 692 429 q 661 422 671 429 q 739 344 683 363 l 739 240 q 684 151 721 199 q 596 63 647 103 l 836 63 q 931 204 931 149 q 924 230 931 221 q 918 240 918 239 l 1107 240 q 978 101 1046 164 q 854 0 910 39 l 497 0 l 469 63 l 547 297 l 547 401 q 539 419 547 408 q 506 429 531 429 l 306 429 l 233 429 q 200 419 208 429 q 192 401 192 408 l 192 297 l 269 63 l 242 0 q 92 109 154 43 q 0 240 31 175 l 0 344 q 67 400 43 358 q 90 493 90 442 q 67 586 90 544 q 0 642 44 628 l 0 746 q 92 867 31 806 q 242 972 154 929 l 849 972 q 976 881 907 939 q 1107 746 1046 822 l 1107 642 q 897 518 1044 603 l 871 556 l 918 642 l 919 746 m 501 513 q 533 518 525 513 q 547 540 542 524 l 547 706 q 469 910 474 904 l 269 910 q 192 706 265 904 l 192 540 q 206 518 197 524 q 238 513 214 513 l 306 513 l 501 513 m 1057 240 l 918 240 l 917 344 l 869 422 l 897 461 q 1107 344 1044 376 l 1107 240 l 1057 240 z "},"b":{"ha":739,"x_min":0,"x_max":744,"o":"m 510 514 q 628 453 565 494 q 744 344 690 411 l 744 240 q 633 109 700 175 q 490 0 567 43 l 242 0 q 92 109 154 43 q 0 240 31 175 l 0 344 q 67 400 43 358 q 90 493 90 442 q 67 586 90 544 q 0 642 44 628 l 0 746 q 93 867 31 806 q 243 972 156 929 l 424 972 q 564 867 500 929 q 669 746 628 806 l 669 642 l 671 642 q 510 514 614 571 m 192 575 q 206 553 197 558 q 238 547 214 547 l 414 547 q 471 600 456 583 q 486 625 486 617 q 483 633 486 628 q 481 642 481 638 l 479 746 l 400 913 l 271 913 q 192 706 267 907 l 192 575 m 556 344 q 559 356 556 349 q 563 368 563 364 q 539 403 563 382 q 450 464 515 425 l 233 464 q 200 453 208 464 q 192 436 192 443 l 192 297 l 269 63 l 467 63 l 554 238 l 556 344 z "},"c":{"ha":739,"x_min":0,"x_max":739,"o":"m 551 746 q 556 753 551 747 q 561 772 561 760 q 463 910 561 819 l 318 910 q 265 811 288 865 q 240 707 243 757 l 239 265 q 264 161 242 215 q 317 63 286 107 l 468 63 q 563 204 563 149 q 556 230 563 221 q 550 240 550 239 l 549 344 l 501 422 l 529 461 q 739 344 676 376 l 739 240 q 610 101 678 164 q 486 0 542 39 l 289 0 q 126 109 201 43 q 0 240 50 175 l 0 344 q 67 400 43 358 q 90 493 90 442 q 67 586 90 544 q 0 642 44 628 l 0 746 q 126 867 50 806 q 290 972 203 929 l 481 972 q 608 881 539 939 q 739 746 678 822 l 739 642 q 529 518 676 603 l 503 556 l 550 642 l 551 746 z "},"ç":{"ha":739,"x_min":0,"x_max":739,"o":"m 551 746 q 556 753 551 747 q 561 772 561 760 q 463 910 561 819 l 318 910 q 265 811 288 865 q 240 707 243 757 l 239 265 q 264 161 242 215 q 317 63 286 107 l 468 63 q 563 204 563 149 q 556 230 563 221 q 550 240 550 239 l 549 344 l 501 422 l 529 461 q 739 344 676 376 l 739 240 q 610 101 678 164 q 486 0 542 39 l 392 0 q 483 -60 447 -32 q 532 -108 518 -89 l 532 -249 l 301 -247 q 222 -169 264 -217 q 147 -65 181 -122 l 182 -47 l 300 -106 l 390 -107 l 289 0 q 126 109 201 43 q 0 240 50 175 l 0 344 q 67 400 43 358 q 90 493 90 442 q 67 586 90 544 q 0 642 44 628 l 0 746 q 126 867 50 806 q 290 972 203 929 l 481 972 q 608 881 539 939 q 739 746 678 822 l 739 642 q 529 518 676 603 l 503 556 l 550 642 l 551 746 z "},"d":{"ha":838,"x_min":0,"x_max":838,"o":"m 838 344 l 838 240 q 708 101 776 164 q 585 0 640 39 l 239 0 q 90 109 151 43 q 0 240 29 175 l 0 344 q 67 400 43 358 q 90 493 90 442 q 67 586 90 544 q 0 642 44 628 l 0 746 q 76 884 29 821 q 176 972 122 947 l 251 972 q 376 881 308 939 q 506 746 444 822 l 506 642 q 483 624 490 636 q 475 596 475 611 q 481 571 475 582 l 649 344 l 838 344 m 567 63 q 657 182 657 133 q 653 201 657 196 q 649 208 649 207 l 656 210 l 649 208 l 413 524 l 315 642 l 315 746 q 322 755 315 747 q 328 776 328 763 q 235 910 328 825 l 192 910 l 192 710 l 192 706 l 192 297 l 267 63 l 567 63 z "},"e":{"ha":739,"x_min":0,"x_max":739,"o":"m 551 746 q 556 753 551 747 q 561 772 561 760 q 463 910 561 819 l 318 910 q 265 811 288 865 q 240 707 243 757 l 240 532 q 253 512 244 517 q 285 507 263 507 l 353 507 l 353 424 l 281 424 q 250 416 260 424 q 239 399 240 408 l 239 265 q 264 161 242 215 q 317 63 286 107 l 468 63 q 563 204 563 149 q 556 230 563 221 q 550 240 550 239 l 549 344 l 501 422 l 529 461 q 739 344 676 376 l 739 240 q 610 101 678 164 q 486 0 542 39 l 289 0 q 126 109 201 43 q 0 240 50 175 l 0 344 q 67 400 43 358 q 90 493 90 442 q 67 586 90 544 q 0 642 44 628 l 0 746 q 126 867 50 806 q 290 972 203 929 l 481 972 q 608 881 539 939 q 739 746 678 822 l 739 642 q 529 518 676 603 l 503 556 l 550 642 l 551 746 z "},"é":{"ha":739,"x_min":0,"x_max":739,"o":"m 599 1158 q 547 1080 579 1119 q 481 1010 514 1040 l 290 1008 l 290 1111 l 482 1111 l 564 1176 l 599 1158 m 551 746 q 556 753 551 747 q 561 772 561 760 q 463 910 561 819 l 318 910 q 265 811 288 865 q 240 707 243 757 l 240 532 q 253 512 244 517 q 285 507 263 507 l 353 507 l 353 424 l 281 424 q 250 416 260 424 q 239 399 240 408 l 239 265 q 264 161 242 215 q 317 63 286 107 l 468 63 q 563 204 563 149 q 556 230 563 221 q 550 240 550 239 l 549 344 l 501 422 l 529 461 q 739 344 676 376 l 739 240 q 610 101 678 164 q 486 0 542 39 l 289 0 q 126 109 201 43 q 0 240 50 175 l 0 344 q 67 400 43 358 q 90 493 90 442 q 67 586 90 544 q 0 642 44 628 l 0 746 q 126 867 50 806 q 290 972 203 929 l 481 972 q 608 881 539 939 q 739 746 678 822 l 739 642 q 529 518 676 603 l 503 556 l 550 642 l 551 746 z "},"ê":{"ha":739,"x_min":0,"x_max":739,"o":"m 294 1007 l 106 1007 l 106 1083 q 211 1153 147 1117 q 351 1219 275 1190 l 421 1219 q 561 1153 497 1190 q 667 1083 625 1117 l 667 1007 l 478 1007 l 476 1086 l 397 1190 l 375 1190 l 296 1086 l 294 1007 m 551 746 q 556 753 551 747 q 561 772 561 760 q 463 910 561 819 l 318 910 q 265 811 288 865 q 240 707 243 757 l 240 532 q 253 512 244 517 q 285 507 263 507 l 353 507 l 353 424 l 281 424 q 250 416 260 424 q 239 399 240 408 l 239 265 q 264 161 242 215 q 317 63 286 107 l 468 63 q 563 204 563 149 q 556 230 563 221 q 550 240 550 239 l 549 344 l 501 422 l 529 461 q 739 344 676 376 l 739 240 q 610 101 678 164 q 486 0 542 39 l 289 0 q 126 109 201 43 q 0 240 50 175 l 0 344 q 67 400 43 358 q 90 493 90 442 q 67 586 90 544 q 0 642 44 628 l 0 746 q 126 867 50 806 q 290 972 203 929 l 481 972 q 608 881 539 939 q 739 746 678 822 l 739 642 q 529 518 676 603 l 503 556 l 550 642 l 551 746 z "},"ë":{"ha":739,"x_min":0,"x_max":739,"o":"m 338 1029 l 196 1011 l 196 1153 l 338 1135 l 338 1029 m 571 1011 l 429 1029 l 429 1135 l 571 1153 l 571 1011 m 551 746 q 556 753 551 747 q 561 772 561 760 q 463 910 561 819 l 318 910 q 265 811 288 865 q 240 707 243 757 l 240 532 q 253 512 244 517 q 285 507 263 507 l 353 507 l 353 424 l 281 424 q 250 416 260 424 q 239 399 240 408 l 239 265 q 264 161 242 215 q 317 63 286 107 l 468 63 q 563 204 563 149 q 556 230 563 221 q 550 240 550 239 l 549 344 l 501 422 l 529 461 q 739 344 676 376 l 739 240 q 610 101 678 164 q 486 0 542 39 l 289 0 q 126 109 201 43 q 0 240 50 175 l 0 344 q 67 400 43 358 q 90 493 90 442 q 67 586 90 544 q 0 642 44 628 l 0 746 q 126 867 50 806 q 290 972 203 929 l 481 972 q 608 881 539 939 q 739 746 678 822 l 739 642 q 529 518 676 603 l 503 556 l 550 642 l 551 746 z "},"è":{"ha":739,"x_min":0,"x_max":739,"o":"m 292 1010 q 226 1080 258 1040 q 174 1158 193 1119 l 208 1176 l 290 1111 l 482 1111 l 482 1008 l 292 1010 m 551 746 q 556 753 551 747 q 561 772 561 760 q 463 910 561 819 l 318 910 q 265 811 288 865 q 240 707 243 757 l 240 532 q 253 512 244 517 q 285 507 263 507 l 353 507 l 353 424 l 281 424 q 250 416 260 424 q 239 399 240 408 l 239 265 q 264 161 242 215 q 317 63 286 107 l 468 63 q 563 204 563 149 q 556 230 563 221 q 550 240 550 239 l 549 344 l 501 422 l 529 461 q 739 344 676 376 l 739 240 q 610 101 678 164 q 486 0 542 39 l 289 0 q 126 109 201 43 q 0 240 50 175 l 0 344 q 67 400 43 358 q 90 493 90 442 q 67 586 90 544 q 0 642 44 628 l 0 746 q 126 867 50 806 q 290 972 203 929 l 481 972 q 608 881 539 939 q 739 746 678 822 l 739 642 q 529 518 676 603 l 503 556 l 550 642 l 551 746 z "},"f":{"ha":657,"x_min":0,"x_max":657,"o":"m 386 972 q 523 881 450 939 q 657 746 596 822 l 657 642 q 447 518 594 603 l 421 556 l 468 642 l 468 746 q 474 760 468 750 q 481 781 481 771 q 368 913 481 824 l 269 913 q 192 706 265 907 l 192 535 q 206 513 197 518 q 238 507 214 507 l 306 507 l 306 424 l 233 424 q 200 413 208 424 q 192 396 192 403 l 192 297 l 269 63 l 242 0 q 92 109 154 43 q 0 240 31 175 l 0 344 q 67 400 43 358 q 90 493 90 442 q 67 586 90 544 q 0 642 44 628 l 0 746 q 92 867 31 806 q 242 972 154 929 l 386 972 z "},"g":{"ha":874,"x_min":0,"x_max":874,"o":"m 874 344 l 874 240 q 740 101 813 164 q 603 0 667 39 l 242 0 q 92 109 154 43 q 0 240 31 175 l 0 344 q 67 400 43 358 q 90 493 90 442 q 67 586 90 544 q 0 642 44 628 l 0 746 q 93 867 31 806 q 243 972 156 929 l 424 972 q 522 893 461 950 q 660 746 583 836 l 660 642 q 450 518 597 603 l 424 556 l 471 642 l 471 746 q 477 755 471 747 q 483 779 483 763 q 399 910 483 826 l 271 910 l 192 706 l 192 297 l 269 63 l 438 63 q 346 151 388 103 q 278 242 304 200 l 278 344 q 342 418 292 394 q 456 442 393 442 l 786 442 q 816 367 786 388 q 872 344 846 347 l 874 344 m 585 63 q 697 201 697 151 q 691 224 697 213 q 685 240 685 236 l 685 283 l 683 331 q 675 380 683 364 q 648 401 667 396 q 588 406 629 406 l 538 406 q 475 391 493 404 q 457 344 457 378 l 458 239 l 538 63 l 585 63 z "},"h":{"ha":690,"x_min":0,"x_max":690,"o":"m 690 642 q 624 586 647 628 q 600 493 600 544 q 624 400 600 442 q 690 344 647 358 l 690 240 q 598 109 660 175 q 449 0 536 43 l 421 63 l 499 297 l 499 401 q 490 419 499 408 q 457 429 482 429 l 368 429 l 233 429 q 200 419 208 429 q 192 401 192 408 l 192 297 l 269 63 l 242 0 q 92 109 154 43 q 0 240 31 175 l 0 344 q 67 400 43 358 q 90 493 90 442 q 67 586 90 544 q 0 642 44 628 l 0 746 q 92 867 31 806 q 242 972 154 929 l 269 910 q 192 706 265 904 l 192 540 q 206 518 197 524 q 238 513 214 513 l 368 513 l 453 513 q 485 518 476 513 q 499 540 493 524 l 499 706 q 421 910 425 904 l 449 972 q 598 867 536 929 q 690 746 660 806 l 690 642 z "},"i":{"ha":735,"x_min":0,"x_max":735,"o":"m 546 642 l 546 658 q 538 676 546 672 q 507 679 531 679 l 463 679 q 439 672 443 679 q 435 633 435 665 l 435 440 l 435 353 q 439 314 435 321 q 463 307 443 307 l 507 307 q 538 310 531 307 q 546 328 546 314 l 546 344 l 735 344 l 735 240 q 629 109 693 175 q 489 0 565 43 l 465 46 l 546 219 q 538 240 546 236 q 503 244 531 244 l 246 244 l 244 244 l 235 244 q 197 240 204 244 q 189 219 189 236 l 269 46 l 246 0 q 106 109 169 43 q 0 240 42 175 l 0 344 l 189 344 l 189 328 q 195 310 189 313 q 214 307 201 307 q 231 307 226 307 l 244 307 l 246 307 l 265 307 q 289 313 285 307 q 293 349 293 319 l 293 440 l 293 638 q 289 673 293 667 q 265 679 285 679 l 246 679 l 244 679 l 231 679 l 215 679 q 194 676 200 679 q 189 658 189 672 l 189 642 l 0 642 l 0 746 q 106 867 42 806 q 246 972 169 929 l 269 926 l 189 767 q 197 746 189 750 q 235 742 204 742 l 244 742 l 246 742 l 503 742 q 538 746 531 742 q 546 767 546 750 l 465 926 l 489 972 q 629 867 565 929 q 735 746 693 806 l 735 642 l 546 642 z "},"î":{"ha":735,"x_min":0,"x_max":735,"o":"m 278 1007 l 89 1007 l 89 1083 q 194 1153 131 1117 q 335 1219 258 1190 l 404 1219 q 544 1153 481 1190 q 650 1083 608 1117 l 650 1007 l 461 1007 l 460 1086 l 381 1190 l 358 1190 l 279 1086 l 278 1007 m 546 642 l 546 658 q 538 676 546 672 q 507 679 531 679 l 463 679 q 439 672 443 679 q 435 633 435 665 l 435 440 l 435 353 q 439 314 435 321 q 463 307 443 307 l 507 307 q 538 310 531 307 q 546 328 546 314 l 546 344 l 735 344 l 735 240 q 629 109 693 175 q 489 0 565 43 l 465 46 l 546 219 q 538 240 546 236 q 503 244 531 244 l 246 244 l 244 244 l 235 244 q 197 240 204 244 q 189 219 189 236 l 269 46 l 246 0 q 106 109 169 43 q 0 240 42 175 l 0 344 l 189 344 l 189 328 q 195 310 189 313 q 214 307 201 307 q 231 307 226 307 l 244 307 l 246 307 l 265 307 q 289 313 285 307 q 293 349 293 319 l 293 440 l 293 638 q 289 673 293 667 q 265 679 285 679 l 246 679 l 244 679 l 231 679 l 215 679 q 194 676 200 679 q 189 658 189 672 l 189 642 l 0 642 l 0 746 q 106 867 42 806 q 246 972 169 929 l 269 926 l 189 767 q 197 746 189 750 q 235 742 204 742 l 244 742 l 246 742 l 503 742 q 538 746 531 742 q 546 767 546 750 l 465 926 l 489 972 q 629 867 565 929 q 735 746 693 806 l 735 642 l 546 642 z "},"ï":{"ha":735,"x_min":0,"x_max":735,"o":"m 319 1029 l 178 1011 l 178 1153 l 319 1135 l 319 1029 m 553 1011 l 411 1029 l 411 1135 l 553 1153 l 553 1011 m 546 642 l 546 658 q 538 676 546 672 q 507 679 531 679 l 463 679 q 439 672 443 679 q 435 633 435 665 l 435 440 l 435 353 q 439 314 435 321 q 463 307 443 307 l 507 307 q 538 310 531 307 q 546 328 546 314 l 546 344 l 735 344 l 735 240 q 629 109 693 175 q 489 0 565 43 l 465 46 l 546 219 q 538 240 546 236 q 503 244 531 244 l 246 244 l 244 244 l 235 244 q 197 240 204 244 q 189 219 189 236 l 269 46 l 246 0 q 106 109 169 43 q 0 240 42 175 l 0 344 l 189 344 l 189 328 q 195 310 189 313 q 214 307 201 307 q 231 307 226 307 l 244 307 l 246 307 l 265 307 q 289 313 285 307 q 293 349 293 319 l 293 440 l 293 638 q 289 673 293 667 q 265 679 285 679 l 246 679 l 244 679 l 231 679 l 215 679 q 194 676 200 679 q 189 658 189 672 l 189 642 l 0 642 l 0 746 q 106 867 42 806 q 246 972 169 929 l 269 926 l 189 767 q 197 746 189 750 q 235 742 204 742 l 244 742 l 246 742 l 503 742 q 538 746 531 742 q 546 767 546 750 l 465 926 l 489 972 q 629 867 565 929 q 735 746 693 806 l 735 642 l 546 642 z "},"j":{"ha":715,"x_min":-1,"x_max":715,"o":"m 715 642 q 649 586 672 628 q 625 493 625 544 q 649 400 625 442 q 715 344 672 358 l 715 240 q 623 109 685 175 q 474 0 561 43 l 271 0 q 133 101 207 39 q -1 240 60 164 l 0 240 l 0 344 q 106 445 42 392 q 246 542 169 499 l 269 496 l 190 347 l 189 240 q 183 224 189 236 q 176 201 176 213 q 289 63 176 151 l 446 63 l 524 297 l 524 706 q 446 910 450 904 l 474 972 q 623 867 561 929 q 715 746 685 806 l 715 642 z "},"k":{"ha":697,"x_min":0,"x_max":699,"o":"m 697 344 l 697 240 q 603 109 663 175 q 468 0 544 43 l 444 63 l 507 240 l 508 344 q 510 353 508 350 q 511 358 511 356 q 488 388 511 367 q 388 468 464 410 l 233 468 q 200 458 208 468 q 192 440 192 447 l 192 297 l 269 63 l 242 0 q 92 109 154 43 q 0 240 31 175 l 0 344 q 67 400 43 358 q 90 493 90 442 q 67 586 90 544 q 0 642 44 628 l 0 746 q 92 867 31 806 q 242 972 154 929 l 269 910 q 192 706 265 904 l 192 579 q 206 557 197 563 q 238 551 214 551 l 367 551 q 435 624 435 607 q 431 632 435 626 q 428 642 428 638 l 426 746 l 364 910 l 388 972 q 523 867 464 929 q 617 746 582 806 l 617 642 l 618 642 q 460 514 561 571 q 583 452 519 493 q 699 344 646 411 l 697 344 z "},"l":{"ha":715,"x_min":0,"x_max":717,"o":"m 717 240 q 582 101 656 164 q 444 0 508 39 l 242 0 q 92 109 154 43 q 0 240 31 175 l 0 344 q 67 400 43 358 q 90 493 90 442 q 67 586 90 544 q 0 642 44 628 l 0 746 q 92 867 31 806 q 242 972 154 929 l 269 910 q 192 706 265 904 l 192 297 l 269 63 l 426 63 q 539 201 539 151 q 533 224 539 213 q 526 240 526 236 l 525 347 l 446 496 l 469 542 q 610 445 546 499 q 715 344 674 392 l 715 240 l 717 240 z "},"m":{"ha":804,"x_min":0,"x_max":804,"o":"m 804 642 q 738 586 761 628 q 714 493 714 544 q 738 400 714 442 q 804 344 761 358 l 804 240 q 712 109 774 175 q 563 0 650 43 l 535 63 q 613 267 539 68 l 613 703 q 604 725 613 714 q 579 736 596 736 q 559 729 567 736 q 544 708 551 722 l 447 482 l 357 482 l 260 708 q 245 729 253 722 q 225 736 238 736 q 200 725 208 736 q 192 703 192 714 l 192 267 q 269 63 265 68 l 242 0 q 92 109 154 43 q 0 240 31 175 l 0 344 q 67 400 43 358 q 90 493 90 442 q 67 586 90 544 q 0 642 44 628 l 0 746 q 92 867 31 806 q 242 972 154 929 l 286 910 l 403 601 l 518 910 l 563 972 q 712 867 650 929 q 804 746 774 806 l 804 642 z "},"n":{"ha":718,"x_min":0,"x_max":718,"o":"m 718 642 q 651 586 675 628 q 628 493 628 544 q 651 400 628 442 q 718 344 675 358 l 718 240 q 626 109 688 175 q 476 0 564 43 l 449 63 l 324 490 l 258 708 q 225 736 251 736 q 200 725 208 736 q 192 703 192 714 l 192 297 l 269 63 l 242 0 q 92 109 154 43 q 0 240 31 175 l 0 344 q 67 400 43 358 q 90 493 90 442 q 67 586 90 544 q 0 642 44 628 l 0 746 q 92 867 31 806 q 242 972 154 929 l 269 910 l 392 492 l 460 264 q 493 236 467 236 q 518 247 510 236 q 526 269 526 258 l 526 706 q 449 910 453 904 l 476 972 q 626 867 564 929 q 718 746 688 806 l 718 642 z "},"o":{"ha":761,"x_min":0,"x_max":761,"o":"m 761 642 q 694 586 718 628 q 671 493 671 544 q 694 400 671 442 q 761 344 718 358 l 761 240 q 669 109 731 175 q 519 0 607 43 l 242 0 q 92 109 154 43 q 0 240 31 175 l 0 344 q 67 400 43 358 q 90 493 90 442 q 67 586 90 544 q 0 642 44 628 l 0 746 q 93 867 31 806 q 243 972 156 929 l 518 972 q 668 867 606 929 q 761 746 731 806 l 761 642 m 569 706 q 490 910 494 904 l 271 910 q 192 706 267 904 l 192 297 l 269 63 l 492 63 l 569 297 l 569 706 z "},"ó":{"ha":761,"x_min":0,"x_max":761,"o":"m 246 1011 q 167 1089 208 1042 q 92 1193 125 1136 l 126 1211 l 244 1153 l 335 1151 l 233 1258 l 333 1260 q 426 1198 390 1226 q 476 1150 463 1169 l 476 1010 l 246 1011 m 761 642 q 694 586 718 628 q 671 493 671 544 q 694 400 671 442 q 761 344 718 358 l 761 240 q 669 109 731 175 q 519 0 607 43 l 242 0 q 92 109 154 43 q 0 240 31 175 l 0 344 q 67 400 43 358 q 90 493 90 442 q 67 586 90 544 q 0 642 44 628 l 0 746 q 93 867 31 806 q 243 972 156 929 l 518 972 q 668 867 606 929 q 761 746 731 806 l 761 642 m 569 706 q 490 910 494 904 l 271 910 q 192 706 267 904 l 192 297 l 269 63 l 492 63 l 569 297 l 569 706 z "},"ô":{"ha":761,"x_min":0,"x_max":761,"o":"m 290 1007 l 101 1007 l 101 1083 q 207 1153 143 1117 q 347 1219 271 1190 l 417 1219 q 557 1153 493 1190 q 663 1083 621 1117 l 663 1007 l 474 1007 l 472 1086 l 393 1190 l 371 1190 l 292 1086 l 290 1007 m 761 642 q 694 586 718 628 q 671 493 671 544 q 694 400 671 442 q 761 344 718 358 l 761 240 q 669 109 731 175 q 519 0 607 43 l 242 0 q 92 109 154 43 q 0 240 31 175 l 0 344 q 67 400 43 358 q 90 493 90 442 q 67 586 90 544 q 0 642 44 628 l 0 746 q 93 867 31 806 q 243 972 156 929 l 518 972 q 668 867 606 929 q 761 746 731 806 l 761 642 m 569 706 q 490 910 494 904 l 271 910 q 192 706 267 904 l 192 297 l 269 63 l 492 63 l 569 297 l 569 706 z "},"ö":{"ha":761,"x_min":0,"x_max":761,"o":"m 328 1029 l 186 1011 l 186 1153 l 328 1135 l 328 1029 m 561 1011 l 419 1029 l 419 1135 l 561 1153 l 561 1011 m 761 642 q 694 586 718 628 q 671 493 671 544 q 694 400 671 442 q 761 344 718 358 l 761 240 q 669 109 731 175 q 519 0 607 43 l 242 0 q 92 109 154 43 q 0 240 31 175 l 0 344 q 67 400 43 358 q 90 493 90 442 q 67 586 90 544 q 0 642 44 628 l 0 746 q 93 867 31 806 q 243 972 156 929 l 518 972 q 668 867 606 929 q 761 746 731 806 l 761 642 m 569 706 q 490 910 494 904 l 271 910 q 192 706 267 904 l 192 297 l 269 63 l 492 63 l 569 297 l 569 706 z "},"œ":{"ha":1100,"x_min":0,"x_max":1100,"o":"m 913 746 q 917 753 913 747 q 922 772 922 760 q 824 910 922 819 l 618 910 q 706 827 669 871 q 761 746 743 783 l 761 642 q 699 594 722 629 q 671 514 676 560 q 689 513 676 513 l 768 513 l 768 429 l 685 429 l 681 429 q 761 344 704 363 l 761 240 q 706 151 743 199 q 618 63 669 103 l 829 63 q 924 204 924 149 q 917 230 924 221 q 911 240 911 239 l 910 344 l 863 422 l 890 461 q 1100 344 1038 376 l 1100 240 q 971 101 1039 164 q 847 0 903 39 l 242 0 q 92 109 154 43 q 0 240 31 175 l 0 344 q 67 400 43 358 q 90 493 90 442 q 67 586 90 544 q 0 642 44 628 l 0 746 q 93 867 31 806 q 243 972 156 929 l 842 972 q 969 881 900 939 q 1100 746 1039 822 l 1100 642 q 890 518 1038 603 l 864 556 l 911 642 l 913 746 m 492 63 l 569 297 l 569 706 q 490 910 494 904 l 271 910 q 192 706 267 904 l 192 297 l 269 63 l 492 63 z "},"p":{"ha":615,"x_min":0,"x_max":615,"o":"m 344 972 q 481 881 408 939 q 615 746 554 822 l 615 642 q 510 520 574 582 q 369 415 446 458 l 233 415 q 200 405 208 415 q 192 388 192 394 l 192 297 l 269 63 l 242 0 q 92 109 154 43 q 0 240 31 175 l 0 344 q 67 400 43 358 q 90 493 90 442 q 67 586 90 544 q 0 642 44 628 l 0 746 q 92 867 31 806 q 242 972 154 929 l 344 972 m 426 746 q 433 765 433 751 q 409 821 433 785 q 324 910 385 857 l 271 910 q 176 744 176 808 q 192 706 176 718 l 192 526 q 206 504 197 510 q 238 499 214 499 l 363 499 l 425 639 l 426 746 z "},"q":{"ha":976,"x_min":0,"x_max":976,"o":"m 767 468 q 976 344 914 383 l 976 240 q 840 101 915 164 q 697 0 764 39 l 242 0 q 92 109 154 43 q 0 240 31 175 l 0 344 q 67 400 43 358 q 90 493 90 442 q 67 586 90 544 q 0 642 44 628 l 0 746 q 93 867 31 806 q 243 972 156 929 l 474 972 q 624 867 561 929 q 717 746 686 806 l 717 642 q 650 586 674 628 q 626 493 626 544 q 650 400 626 442 q 717 344 674 358 l 717 240 q 660 150 697 199 q 569 60 622 101 l 679 60 q 799 204 799 156 q 794 226 799 215 q 789 240 789 238 l 788 344 l 740 431 l 767 468 m 447 63 l 525 297 l 525 706 q 446 910 450 904 l 271 910 q 192 706 267 904 l 192 297 l 269 63 l 447 63 z "},"r":{"ha":718,"x_min":0,"x_max":718,"o":"m 476 511 q 597 445 532 486 q 718 344 661 404 l 718 240 q 616 109 679 175 q 476 0 553 43 l 453 65 l 528 240 l 529 344 q 532 353 529 349 q 535 361 535 358 q 512 392 535 371 q 422 464 489 414 l 233 464 q 200 453 208 464 q 192 436 192 443 l 192 297 l 269 65 l 242 0 q 92 109 154 43 q 0 240 31 175 l 0 344 q 67 400 43 358 q 90 493 90 442 q 67 586 90 544 q 0 642 44 628 l 0 746 q 89 867 28 806 q 238 972 150 929 l 393 972 q 533 867 469 929 q 638 746 597 806 l 638 642 l 639 642 q 565 569 606 600 q 476 511 525 539 m 192 575 q 206 553 197 558 q 238 547 214 547 l 388 547 q 456 622 456 607 q 452 632 456 626 q 449 642 449 638 l 447 746 l 369 913 l 265 913 q 209 852 226 913 q 192 706 192 792 l 192 575 z "},"s":{"ha":728,"x_min":0,"x_max":728,"o":"m 506 642 l 506 657 q 464 679 506 679 l 269 679 q 228 657 228 679 l 228 642 q 249 582 228 610 q 319 540 271 554 l 424 503 l 550 467 q 672 411 621 443 q 728 344 724 379 l 728 240 q 419 0 567 86 l 308 0 q 0 240 161 86 l 0 344 l 222 344 l 222 329 q 264 307 222 307 l 458 307 q 500 329 500 307 l 500 344 q 470 413 500 390 q 365 457 440 436 l 178 519 q 56 575 107 543 q 0 642 4 607 l 0 746 q 147 869 75 818 q 308 972 218 919 l 419 972 q 581 869 510 919 q 728 746 653 818 l 728 642 l 506 642 m 457 743 q 490 754 483 743 q 492 776 497 765 l 392 910 l 335 910 l 235 776 q 236 754 229 765 q 269 743 243 743 l 457 743 m 493 210 q 492 232 499 221 q 458 243 485 243 l 271 243 q 238 232 244 243 q 236 210 231 221 l 336 63 l 393 63 l 493 210 z "},"t":{"ha":971,"x_min":0,"x_max":971,"o":"m 782 642 l 782 767 l 710 910 l 575 910 q 551 903 556 910 q 547 864 547 896 l 547 442 l 547 440 l 547 365 q 551 327 547 335 q 571 318 554 319 q 587 320 582 318 q 594 329 592 322 l 594 347 l 783 347 l 785 240 l 864 49 l 840 3 q 700 112 764 46 q 594 243 636 178 q 586 253 594 247 q 554 258 578 258 l 471 258 l 401 258 q 368 251 376 258 q 360 240 360 244 q 254 109 318 175 q 114 0 190 43 l 90 46 l 169 238 l 171 344 l 360 344 l 360 339 q 365 322 361 326 q 383 318 369 318 q 401 326 397 319 q 406 361 406 333 l 406 440 l 406 442 l 406 868 q 401 903 406 897 q 378 910 397 910 l 261 910 l 189 767 l 189 642 l 0 642 l 0 746 q 106 867 42 806 q 246 972 169 929 l 725 972 q 865 867 801 929 q 971 746 929 806 l 971 642 l 782 642 m 406 318 l 389 318 l 406 318 m 550 318 l 567 318 l 550 318 z "},"u":{"ha":785,"x_min":0,"x_max":785,"o":"m 785 642 q 718 586 742 628 q 694 493 694 544 q 718 400 694 442 q 785 344 742 358 l 785 240 q 692 109 754 175 q 543 0 631 43 l 242 0 q 92 109 154 43 q 0 240 31 175 l 0 344 q 67 400 43 358 q 90 493 90 442 q 67 586 90 544 q 0 642 44 628 l 0 746 q 92 867 31 806 q 242 972 154 929 l 269 910 q 192 706 265 904 l 192 297 l 269 63 l 515 63 l 593 297 l 593 706 q 515 910 519 904 l 543 972 q 692 867 631 929 q 785 746 754 806 l 785 642 z "},"v":{"ha":782,"x_min":0,"x_max":782,"o":"m 540 972 q 690 867 628 929 q 782 746 751 806 l 782 642 q 692 566 728 625 q 656 447 656 507 q 672 383 656 410 q 721 344 688 356 l 721 240 q 628 109 690 175 q 479 0 567 43 l 303 0 q 153 109 215 43 q 61 240 92 175 l 61 344 q 110 383 94 356 q 126 447 126 410 q 90 566 126 507 q 0 642 54 625 l 0 746 q 92 867 31 806 q 242 972 154 929 l 269 910 q 193 710 264 903 q 226 513 200 693 q 253 297 253 332 l 331 63 l 451 63 l 529 297 q 556 513 529 332 q 589 710 582 693 q 513 910 518 903 l 540 972 z "},"w":{"ha":804,"x_min":0,"x_max":804,"o":"m 804 642 q 738 586 761 628 q 714 493 714 544 q 738 400 714 442 q 804 344 761 358 l 804 240 q 712 109 774 175 q 563 0 650 43 l 518 63 l 403 371 l 286 63 l 242 0 q 92 109 154 43 q 0 240 31 175 l 0 344 q 67 400 43 358 q 90 493 90 442 q 67 586 90 544 q 0 642 44 628 l 0 746 q 92 867 31 806 q 242 972 154 929 l 269 910 q 192 706 265 904 l 192 269 q 200 247 192 258 q 225 236 208 236 q 245 243 238 236 q 260 264 253 250 l 357 490 l 447 490 l 544 264 q 559 243 551 250 q 579 236 567 236 q 604 247 596 236 q 613 269 613 258 l 613 706 q 535 910 539 904 l 563 972 q 712 867 650 929 q 804 746 774 806 l 804 642 z "},"x":{"ha":722,"x_min":0,"x_max":722,"o":"m 722 642 q 644 566 693 600 q 544 513 596 532 l 464 490 l 522 474 q 638 420 583 454 q 722 344 693 386 l 722 240 q 414 0 561 86 l 388 50 l 492 218 q 494 329 494 222 l 494 344 q 465 413 494 389 q 361 457 436 436 q 257 413 286 436 q 228 344 228 389 l 228 329 q 231 218 228 222 l 335 50 l 308 0 q 0 240 161 86 l 0 344 q 84 420 29 386 q 200 474 139 454 l 258 490 l 178 513 q 78 566 126 532 q 0 642 29 600 l 0 746 q 146 870 76 819 q 301 971 215 921 l 328 921 l 208 768 q 206 657 206 764 l 206 642 q 233 574 206 597 q 332 532 261 551 q 363 529 346 529 q 392 532 372 529 q 489 575 461 551 q 517 642 517 599 l 517 657 q 514 768 517 764 l 394 921 l 421 971 q 576 870 507 921 q 722 746 646 819 l 722 642 z "},"y":{"ha":849,"x_min":0,"x_max":849,"o":"m 497 431 l 497 267 q 502 235 497 243 q 524 221 507 226 l 613 221 q 644 225 636 221 q 658 242 653 229 l 658 344 l 847 344 l 847 240 q 742 109 806 175 q 601 0 678 43 l 578 46 l 625 158 l 617 158 l 304 158 l 232 158 l 224 158 l 271 46 l 247 0 q 107 109 171 43 q 1 240 43 175 l 1 344 l 190 344 l 190 242 q 204 225 196 229 q 236 221 213 221 l 304 221 l 328 221 q 345 229 335 221 q 356 263 356 238 l 356 431 l 272 431 q 135 512 208 457 q 0 643 61 567 l 0 747 q 106 867 42 806 q 247 972 171 929 l 271 926 l 192 750 l 190 643 q 184 630 190 639 q 178 614 178 621 q 290 490 178 579 l 558 490 q 671 614 671 579 q 665 630 671 621 q 658 643 658 639 l 657 750 l 578 926 l 601 972 q 742 867 678 929 q 849 747 807 806 l 849 643 q 714 512 788 567 q 576 431 640 457 l 497 431 z "},"z":{"ha":635,"x_min":0,"x_max":635,"o":"m 190 326 l 189 215 l 271 46 l 247 0 q 106 108 171 43 q 0 238 42 174 l 0 342 l 136 432 q 446 639 446 636 l 446 643 q 438 656 446 649 q 404 664 429 664 l 389 664 l 229 664 q 190 643 190 664 l 190 639 l 0 639 l 0 743 q 106 865 42 803 q 247 969 171 926 l 271 924 l 189 757 l 189 747 q 202 731 194 735 q 233 726 210 726 l 389 726 l 400 726 q 432 731 424 726 q 446 747 440 735 l 446 757 l 365 924 l 389 969 q 529 865 465 926 q 635 743 593 803 l 635 639 l 190 326 m 233 236 q 202 232 210 236 q 189 215 194 228 l 190 319 q 229 299 190 299 l 389 299 l 404 299 q 438 306 429 299 q 446 319 446 314 l 446 342 l 635 342 l 635 238 q 529 108 593 174 q 389 0 465 43 l 365 46 l 446 215 q 432 232 440 228 q 400 236 424 236 l 389 236 l 233 236 z "},"⁄":{"ha":528,"x_min":24,"x_max":486,"o":"m 406 767 l 401 746 l 293 226 q 188 105 251 167 q 47 0 124 43 l 24 46 l 104 226 l 217 746 q 322 867 258 806 q 463 972 386 929 l 486 926 l 406 767 z "},".":{"ha":194,"x_min":24,"x_max":165,"o":"m 147 142 l 165 0 l 24 0 l 42 142 l 147 142 z "},",":{"ha":306,"x_min":11,"x_max":281,"o":"m 11 -162 l 35 -208 q 175 -108 111 -165 q 281 0 239 -51 l 281 119 l 92 119 l 90 -3 l 11 -162 z "},":":{"ha":199,"x_min":24,"x_max":165,"o":"m 24 503 l 165 503 l 147 361 l 42 361 l 24 503 m 147 142 l 165 0 l 24 0 l 42 142 l 147 142 z "},";":{"ha":333,"x_min":0,"x_max":269,"o":"m 103 503 l 244 503 l 226 361 l 121 361 l 103 503 m 0 -162 l 24 -208 q 164 -108 100 -165 q 269 0 228 -51 l 269 119 l 81 119 l 79 -3 l 0 -162 z "},"…":{"ha":833,"x_min":24,"x_max":165,"o":"m 165 0 l 24 0 l 42 142 l 147 142 l 165 0 z "},"!":{"ha":735,"x_min":0,"x_max":735,"o":"m 489 972 q 629 867 565 929 q 735 746 693 806 l 735 642 l 546 642 l 546 658 q 538 676 546 672 q 507 679 531 679 l 463 679 q 439 672 443 679 q 435 633 435 665 l 414 217 l 314 217 l 293 638 q 289 673 293 667 q 265 679 285 679 l 246 679 l 244 679 l 231 679 l 215 679 q 194 676 200 679 q 189 658 189 672 l 189 642 l 0 642 l 0 746 q 106 867 42 806 q 246 972 169 929 l 269 926 l 189 767 q 197 746 189 750 q 235 742 204 742 l 244 742 l 246 742 l 503 742 q 538 746 531 742 q 546 767 546 750 l 465 926 l 489 972 m 417 142 l 435 0 l 293 0 l 311 142 l 417 142 z "},"¡":{"ha":735,"x_min":0,"x_max":735,"o":"m 318 831 l 300 972 l 442 972 l 424 831 l 318 831 m 735 331 l 735 226 q 629 105 693 167 q 489 0 565 43 l 465 46 l 546 206 q 538 226 546 222 q 500 231 531 231 l 490 231 l 489 231 l 232 231 q 197 226 204 231 q 189 206 189 222 l 269 46 l 246 0 q 106 105 169 43 q 0 226 42 167 l 0 331 l 189 331 l 189 314 q 197 297 189 300 q 228 293 204 293 l 272 293 q 296 300 292 293 q 300 339 300 307 l 321 756 l 421 756 l 442 335 q 446 299 442 306 q 469 293 450 293 l 489 293 l 490 293 l 504 293 l 519 293 q 540 297 535 293 q 546 314 546 300 l 546 331 l 735 331 z "},"?":{"ha":735,"x_min":0,"x_max":735,"o":"m 489 972 q 629 867 565 929 q 735 746 693 806 l 735 642 q 629 520 693 582 q 489 415 565 458 l 394 240 l 279 240 l 279 344 q 378 460 318 400 q 510 563 438 519 l 546 642 l 546 767 l 474 910 l 261 910 l 189 767 l 189 642 l 0 642 l 0 746 q 106 867 42 806 q 246 972 169 929 l 489 972 m 389 142 l 407 0 l 265 0 l 283 142 l 389 142 z "},"¿":{"ha":735,"x_min":0,"x_max":735,"o":"m 346 831 l 328 972 l 469 972 l 451 831 l 346 831 m 735 331 l 735 226 q 629 105 693 167 q 489 0 565 43 l 246 0 q 106 105 169 43 q 0 226 42 167 l 0 331 q 106 452 42 390 q 246 557 169 514 l 340 732 l 456 732 l 456 628 q 357 513 417 572 q 225 410 297 453 l 189 331 l 189 206 l 261 63 l 474 63 l 546 206 l 546 331 l 735 331 z "},"·":{"ha":194,"x_min":24,"x_max":165,"o":"m 147 510 l 165 368 l 24 368 l 42 510 l 147 510 z "},"•":{"ha":388,"x_min":43,"x_max":344,"o":"m 307 510 l 344 208 l 43 208 l 82 510 l 307 510 z "},"*":{"ha":833,"x_min":71,"x_max":743,"o":"m 743 765 l 743 714 l 710 683 l 461 724 l 679 631 l 672 592 l 619 556 l 565 551 l 429 701 l 485 528 l 443 504 l 368 504 l 325 528 l 385 701 l 249 551 l 194 556 l 142 592 l 135 631 l 353 724 l 104 683 l 71 714 l 71 765 l 104 796 l 353 754 l 138 849 l 143 886 l 196 924 l 251 928 l 385 776 l 325 949 l 368 972 l 443 972 l 486 949 l 429 776 l 563 928 l 618 924 l 671 886 l 676 849 l 461 754 l 710 796 l 743 765 z "},"#":{"ha":972,"x_min":63,"x_max":888,"o":"m 888 547 l 808 478 l 842 483 l 888 447 l 888 379 l 835 342 l 682 367 l 631 322 l 621 304 l 721 321 l 765 286 l 764 217 l 714 181 l 571 206 l 465 0 l 399 0 l 335 85 l 335 129 l 442 228 l 419 232 l 301 211 l 193 0 l 126 0 l 63 85 l 63 129 l 117 179 l 115 179 l 68 214 l 68 283 l 124 321 l 246 300 l 300 350 l 235 339 l 188 374 l 193 446 l 244 483 l 367 463 l 485 694 l 544 694 l 615 607 l 615 547 l 493 440 l 539 432 q 632 447 593 442 l 757 694 l 817 694 l 888 607 l 888 547 m 599 381 l 539 390 l 411 368 l 358 322 l 339 285 l 418 271 l 501 285 l 592 368 l 599 381 z "},"/":{"ha":528,"x_min":24,"x_max":486,"o":"m 406 767 l 401 746 l 293 226 q 188 105 251 167 q 47 0 124 43 l 24 46 l 104 226 l 217 746 q 322 867 258 806 q 463 972 386 929 l 486 926 l 406 767 z "},"\\":{"ha":528,"x_min":24,"x_max":486,"o":"m 486 46 l 463 0 q 322 105 386 43 q 217 226 258 167 l 108 746 l 104 767 l 24 926 l 47 972 q 188 867 124 929 q 293 746 251 806 l 406 226 l 486 46 z "},"(":{"ha":306,"x_min":18,"x_max":288,"o":"m 288 46 l 264 0 q 124 105 188 43 q 18 226 60 167 l 18 746 q 124 867 60 806 q 264 972 188 929 l 288 926 l 207 767 l 207 226 l 288 46 z "},")":{"ha":313,"x_min":13,"x_max":282,"o":"m 36 972 q 176 867 113 929 q 282 746 240 806 l 282 226 q 176 105 240 167 q 36 0 113 43 l 13 46 l 93 226 l 93 767 l 13 926 l 36 972 z "},"{":{"ha":472,"x_min":35,"x_max":438,"o":"m 438 868 q 297 671 372 769 q 154 507 221 572 l 154 432 q 299 283 224 372 q 435 104 374 193 l 435 0 l 319 0 l 93 415 l 35 422 l 35 511 l 93 518 l 322 972 l 438 972 l 438 868 z "},"}":{"ha":472,"x_min":35,"x_max":438,"o":"m 438 422 l 379 415 l 153 0 l 38 0 l 38 104 q 174 283 99 193 q 318 432 249 372 l 318 507 q 176 671 251 572 q 35 868 100 769 l 35 972 l 150 972 l 379 518 l 438 511 l 438 422 z "},"[":{"ha":333,"x_min":32,"x_max":301,"o":"m 301 868 q 226 776 272 825 q 124 686 179 728 l 124 286 q 226 196 179 244 q 301 104 272 147 l 301 0 l 186 0 l 32 285 l 32 688 l 186 972 l 301 972 l 301 868 z "},"]":{"ha":333,"x_min":32,"x_max":301,"o":"m 301 688 l 301 285 l 147 0 l 32 0 l 32 104 q 108 196 61 147 q 210 286 154 244 l 210 686 q 108 776 154 728 q 32 868 61 825 l 32 972 l 147 972 l 301 688 z "},"-":{"ha":556,"x_min":58,"x_max":497,"o":"m 479 510 l 497 368 l 58 368 l 76 510 l 479 510 z "},"–":{"ha":608,"x_min":58,"x_max":550,"o":"m 532 510 l 550 368 l 58 368 l 76 510 l 532 510 z "},"—":{"ha":778,"x_min":57,"x_max":717,"o":"m 699 510 l 717 368 l 57 368 l 75 510 l 699 510 z "},"_":{"ha":608,"x_min":58,"x_max":550,"o":"m 532 142 l 550 0 l 58 0 l 76 142 l 532 142 z "},"‚":{"ha":306,"x_min":11,"x_max":281,"o":"m 11 -162 l 35 -208 q 175 -108 111 -165 q 281 0 239 -51 l 281 119 l 92 119 l 90 -3 l 11 -162 z "},"„":{"ha":833,"x_min":18,"x_max":288,"o":"m 18 -161 l 42 -207 q 182 -107 118 -164 q 288 1 246 -50 l 288 121 l 99 121 l 97 -1 l 18 -161 z "},"“":{"ha":639,"x_min":44,"x_max":582,"o":"m 233 972 l 44 972 l 44 853 q 150 744 86 801 q 290 644 214 688 l 314 690 l 235 850 l 233 972 m 501 972 l 313 972 l 313 853 q 418 744 354 801 q 558 644 482 688 l 582 690 l 503 850 l 501 972 z "},"”":{"ha":639,"x_min":47,"x_max":585,"o":"m 47 690 l 71 644 q 211 744 147 688 q 317 853 275 801 l 317 972 l 128 972 l 126 850 l 47 690 m 315 690 l 339 644 q 479 744 415 688 q 585 853 543 801 l 585 972 l 396 972 l 394 850 l 315 690 z "},"‘":{"ha":347,"x_min":31,"x_max":300,"o":"m 219 972 l 31 972 l 31 853 q 136 744 72 801 q 276 644 200 688 l 300 690 l 221 850 l 219 972 z "},"’":{"ha":347,"x_min":25,"x_max":294,"o":"m 25 690 l 49 644 q 189 744 125 688 q 294 853 253 801 l 294 972 l 106 972 l 104 850 l 25 690 z "},"«":{"ha":556,"x_min":0,"x_max":538,"o":"m 190 642 l 269 482 l 246 436 q 106 536 169 479 q 0 644 42 593 l 0 764 q 106 872 42 815 q 246 972 169 929 l 269 926 l 190 767 l 189 704 l 190 642 m 458 642 l 538 482 l 514 436 q 374 536 438 479 q 268 644 310 593 l 268 764 q 374 872 310 815 q 514 972 438 929 l 538 926 l 458 767 l 457 704 l 458 642 z "},"»":{"ha":556,"x_min":7,"x_max":544,"o":"m 276 644 q 171 536 235 593 q 31 436 107 479 l 7 482 l 86 642 l 88 704 l 86 767 l 7 926 l 31 972 q 171 872 107 929 q 276 764 235 815 l 276 644 m 299 972 q 439 872 375 929 q 544 764 503 815 l 544 644 q 439 536 503 593 q 299 436 375 479 l 275 482 l 354 642 l 356 704 l 354 767 l 275 926 l 299 972 z "},"‹":{"ha":281,"x_min":4,"x_max":274,"o":"m 194 206 l 274 46 l 250 0 q 110 100 174 43 q 4 208 46 157 l 4 328 q 110 436 46 379 q 250 536 174 493 l 274 490 l 194 331 l 193 268 l 194 206 z "},"›":{"ha":281,"x_min":4,"x_max":274,"o":"m 28 536 q 168 436 104 493 q 274 328 232 379 l 274 208 q 168 100 232 157 q 28 0 104 43 l 4 46 l 83 206 l 85 268 l 83 331 l 4 490 l 28 536 z "},"\"":{"ha":538,"x_min":0,"x_max":538,"o":"m 0 690 l 24 644 q 164 744 100 688 q 269 853 228 801 l 269 972 l 81 972 l 79 850 l 0 690 m 268 690 l 292 644 q 432 744 368 688 q 538 853 496 801 l 538 972 l 349 972 l 347 850 l 268 690 z "},"'":{"ha":269,"x_min":0,"x_max":269,"o":"m 0 690 l 24 644 q 164 744 100 688 q 269 853 228 801 l 269 972 l 81 972 l 79 850 l 0 690 z "},"$":{"ha":833,"x_min":0,"x_max":728,"o":"m 506 642 l 506 657 q 464 679 506 679 l 407 679 l 389 515 l 424 503 l 550 467 q 672 411 621 443 q 728 344 724 379 l 728 240 q 433 8 579 96 l 433 -97 l 290 -97 l 289 11 q 0 240 151 94 l 0 344 l 222 344 l 222 329 q 264 307 222 307 l 317 307 l 336 467 l 178 519 q 56 575 107 543 q 0 642 4 607 l 0 746 q 138 863 71 814 q 289 961 206 913 l 290 1097 l 433 1097 l 433 964 q 588 865 519 914 q 728 746 657 815 l 728 642 l 506 642 m 457 743 q 490 754 483 743 q 492 776 497 765 l 428 861 l 414 743 l 457 743 m 235 776 q 236 754 229 765 q 269 743 243 743 l 310 743 l 296 858 l 235 776 m 318 679 l 269 679 q 228 657 228 679 l 228 642 q 249 582 228 610 q 319 540 271 554 l 336 535 l 318 679 m 500 344 q 476 408 500 385 q 393 449 451 431 l 408 307 l 458 307 q 500 329 500 307 l 500 344 m 271 243 q 238 232 244 243 q 236 210 231 221 l 293 125 l 308 243 l 271 243 m 493 210 q 492 232 499 221 q 458 243 485 243 l 417 243 q 431 117 426 146 l 493 210 z "},"€":{"ha":833,"x_min":0,"x_max":0,"o":""},"+":{"ha":833,"x_min":72,"x_max":761,"o":"m 761 417 l 761 274 l 654 274 l 446 314 l 486 107 l 486 0 l 343 0 l 342 107 l 386 314 l 179 274 l 72 274 l 72 417 l 179 418 l 388 374 l 342 582 l 343 689 l 486 689 l 486 582 l 446 374 l 654 418 l 761 417 z "},"−":{"ha":833,"x_min":0,"x_max":0,"o":""},"×":{"ha":778,"x_min":93,"x_max":683,"o":"m 683 100 l 582 -1 l 507 75 l 388 250 l 269 75 l 194 0 l 93 101 l 168 178 l 346 292 q 171 411 308 318 l 94 486 l 196 588 l 272 513 l 388 333 l 504 514 l 581 589 l 682 488 l 606 411 l 429 292 l 608 176 l 683 100 z "},"÷":{"ha":833,"x_min":69,"x_max":760,"o":"m 361 469 l 343 611 l 485 611 l 467 469 l 361 469 m 760 369 l 760 225 l 651 225 l 415 272 l 176 225 l 69 225 l 69 369 l 176 369 l 415 319 l 653 369 l 760 369 m 467 142 l 485 0 l 343 0 l 361 142 l 467 142 z "},"=":{"ha":833,"x_min":69,"x_max":758,"o":"m 758 554 l 758 411 l 651 411 l 414 457 l 176 411 l 69 411 l 69 554 l 176 556 l 414 504 l 651 556 l 758 554 m 651 283 l 758 282 l 758 139 l 651 139 l 414 185 l 176 139 l 69 139 l 69 282 l 176 283 l 414 232 l 651 283 z "},"≠":{"ha":833,"x_min":69,"x_max":758,"o":"m 504 439 l 464 243 l 651 283 l 758 282 l 758 139 l 651 139 l 450 178 l 446 158 q 373 74 418 117 q 274 0 328 31 l 258 32 l 315 158 l 317 167 l 176 139 l 69 139 l 69 282 l 176 283 l 335 249 l 378 450 l 176 411 l 69 411 l 69 554 l 176 556 l 390 510 l 393 522 q 466 606 421 563 q 564 681 511 649 l 581 647 l 525 536 l 524 528 l 651 556 l 758 554 l 758 411 l 651 411 l 504 439 z "},">":{"ha":833,"x_min":0,"x_max":0,"o":""},"<":{"ha":833,"x_min":0,"x_max":0,"o":""},"^":{"ha":625,"x_min":29,"x_max":590,"o":"m 344 972 q 485 872 421 929 q 590 764 549 815 l 590 644 l 401 644 l 400 767 l 321 926 l 299 926 l 219 767 l 218 644 l 29 644 l 29 764 q 135 872 71 815 q 275 972 199 929 l 344 972 z "},"∞":{"ha":833,"x_min":0,"x_max":0,"o":""},"∏":{"ha":833,"x_min":0,"x_max":0,"o":""},"%":{"ha":833,"x_min":26,"x_max":806,"o":"m 289 671 l 64 671 l 26 972 l 328 972 l 289 671 m 460 226 q 354 105 418 167 q 214 0 290 43 l 190 46 l 271 226 l 383 746 q 489 867 425 806 q 629 972 553 929 l 653 926 l 572 767 l 568 746 l 460 226 m 806 0 l 504 0 l 543 301 l 768 301 l 806 0 z "},"↑":{"ha":833,"x_min":0,"x_max":0,"o":""},"←":{"ha":833,"x_min":0,"x_max":0,"o":""},"@":{"ha":861,"x_min":13,"x_max":838,"o":"m 225 531 l 225 914 q 252 990 224 943 q 343 1092 281 1036 l 463 1092 q 551 1003 504 1057 q 635 1092 581 1043 l 635 1046 l 635 893 l 664 846 l 625 822 l 553 858 l 553 531 q 573 456 553 475 q 644 436 593 436 l 685 435 q 775 533 718 463 l 775 736 l 774 736 l 774 1058 q 651 1171 685 1171 q 636 1165 644 1171 q 624 1158 628 1158 l 425 1157 l 226 1158 q 214 1165 222 1158 q 199 1171 206 1171 q 75 1058 164 1171 l 76 767 l 76 497 l 75 497 l 75 289 q 199 176 164 176 q 214 183 206 176 q 226 189 222 189 l 832 190 l 833 51 q 832 0 833 3 l 226 0 q 95 134 150 61 q 13 271 40 207 l 14 643 l 13 1076 q 95 1213 40 1140 q 226 1347 150 1286 l 624 1347 q 755 1213 700 1286 q 838 1076 810 1140 l 836 853 l 838 515 q 790 429 821 478 q 717 333 758 381 l 717 244 l 331 244 q 296 306 322 281 q 225 332 269 332 l 225 531 m 261 531 q 281 456 261 475 q 353 436 301 436 l 425 435 l 517 435 l 517 531 l 517 876 l 465 901 l 343 903 q 319 908 336 903 q 290 913 301 913 q 261 896 271 913 l 261 531 z "},"&":{"ha":782,"x_min":0,"x_max":782,"o":"m 689 297 l 782 296 q 660 157 729 224 q 534 44 592 90 q 476 0 476 -3 l 222 0 q 88 120 146 61 q 0 222 31 179 l 0 413 q 160 576 57 485 q 0 769 58 701 l 0 818 l 0 886 l 0 888 q 119 1022 61 964 q 221 1111 178 1079 l 292 1111 q 398 1022 338 1079 q 519 888 458 964 l 519 886 l 519 818 l 519 769 q 328 540 469 713 l 600 246 l 600 258 q 598 281 600 269 q 596 297 596 292 l 689 297 m 147 818 q 177 685 147 736 q 257 628 207 633 q 340 684 308 632 q 372 818 372 736 l 372 889 q 379 903 372 893 q 386 921 386 913 q 362 968 386 939 q 272 1050 338 997 l 240 1050 q 132 924 132 963 q 140 903 132 914 q 147 889 147 893 l 147 818 m 558 524 q 782 415 708 444 l 782 296 l 689 297 l 596 297 l 596 413 l 536 476 l 558 524 m 222 500 m 475 78 q 546 147 517 114 l 221 500 q 194 479 208 496 q 149 419 181 463 l 132 396 l 132 240 q 154 169 136 207 q 192 104 172 131 q 224 78 213 78 l 475 78 z "},"¶":{"ha":569,"x_min":18,"x_max":542,"o":"m 326 288 q 362 228 338 268 q 397 168 386 188 l 397 44 l 397 0 q 297 132 329 60 q 264 269 264 204 l 263 486 q 141 519 197 486 q 51 608 85 551 q 18 729 18 664 q 50 849 18 794 q 138 938 82 904 q 258 972 193 971 l 321 972 l 326 288 m 542 44 l 542 0 q 441 132 474 60 q 408 269 408 204 l 403 972 l 465 972 l 471 288 q 506 228 482 268 q 542 168 531 188 l 542 44 z "},"©":{"ha":694,"x_min":68,"x_max":607,"o":"m 468 972 q 553 885 518 933 q 607 796 589 838 l 606 364 q 552 274 588 322 q 467 188 517 226 l 208 188 q 122 274 158 226 q 68 364 86 322 l 69 796 q 123 885 88 838 q 208 972 158 933 l 468 972 m 467 310 q 475 306 469 310 q 485 301 481 301 q 564 375 504 301 l 565 783 q 486 857 508 857 q 476 853 482 857 q 468 849 471 849 l 338 847 l 208 849 q 200 853 206 849 q 189 857 194 857 q 110 783 168 857 l 110 375 q 189 301 169 301 q 200 306 194 301 q 208 310 206 310 l 338 311 l 467 310 m 388 804 q 448 762 415 789 q 510 699 481 735 l 510 649 l 411 592 l 399 608 l 421 649 l 422 699 q 428 705 422 699 q 381 761 435 711 l 313 761 q 288 725 299 746 q 276 681 276 704 l 275 472 q 287 427 276 449 q 311 390 297 406 l 383 390 q 426 449 426 431 q 424 457 426 454 q 421 461 421 460 l 421 508 l 399 546 l 411 564 l 510 508 l 510 461 q 390 349 454 392 l 299 349 q 222 399 257 368 q 163 461 186 431 l 163 508 q 194 535 183 515 q 206 579 206 554 q 194 624 206 604 q 163 649 183 643 l 163 699 q 222 755 186 726 q 300 804 258 783 l 388 804 z "},"®":{"ha":694,"x_min":68,"x_max":607,"o":"m 468 972 q 553 885 518 933 q 607 796 589 838 l 606 364 q 552 274 588 322 q 467 188 517 226 l 208 188 q 122 274 158 226 q 68 364 86 322 l 69 796 q 123 885 88 838 q 208 972 158 933 l 468 972 m 467 310 q 475 306 469 310 q 485 301 481 301 q 564 375 504 301 l 565 783 q 486 857 508 857 q 476 853 482 857 q 468 849 471 849 l 338 847 l 208 849 q 200 853 206 849 q 189 857 194 857 q 110 783 168 857 l 110 375 q 189 301 169 301 q 200 306 194 301 q 208 310 206 310 l 338 311 l 467 310 m 396 590 q 510 511 465 558 l 510 463 q 462 401 492 432 q 396 349 432 369 l 385 381 l 421 463 l 421 511 q 423 518 421 514 q 414 533 425 522 q 369 568 403 543 l 282 568 q 265 563 269 568 q 261 554 261 558 l 261 490 l 299 381 l 286 349 q 215 401 244 369 q 172 463 186 432 l 172 511 q 204 538 193 518 q 215 582 215 557 q 204 626 215 607 q 172 651 193 646 l 172 700 q 213 757 185 728 q 283 807 242 786 l 357 807 q 423 757 393 786 q 472 700 453 728 l 472 651 q 396 590 446 615 m 261 619 q 268 609 264 611 q 283 607 272 607 l 354 607 q 383 635 378 628 q 385 645 388 642 q 383 651 383 649 l 383 700 l 344 779 l 296 779 q 269 751 278 779 q 261 682 261 722 l 261 619 z "},"™":{"ha":1775,"x_min":0,"x_max":1775,"o":"m 782 642 l 782 767 l 710 910 l 575 910 q 551 903 556 910 q 547 864 547 896 l 547 442 l 547 440 l 547 365 q 551 327 547 335 q 571 318 554 319 q 587 320 582 318 q 594 329 592 322 l 594 347 l 783 347 l 785 240 l 864 49 l 840 3 q 700 112 764 46 q 594 243 636 178 q 586 253 594 247 q 554 258 578 258 l 471 258 l 401 258 q 368 251 376 258 q 360 240 360 244 q 254 109 318 175 q 114 0 190 43 l 90 46 l 169 238 l 171 344 l 360 344 l 360 339 q 365 322 361 326 q 383 318 369 318 q 401 326 397 319 q 406 361 406 333 l 406 440 l 406 442 l 406 868 q 401 903 406 897 q 378 910 397 910 l 261 910 l 189 767 l 189 642 l 0 642 l 0 746 q 106 867 42 806 q 246 972 169 929 l 725 972 q 865 867 801 929 q 971 746 929 806 l 971 642 l 782 642 m 406 318 l 389 318 l 406 318 m 550 318 l 567 318 l 550 318 m 1775 642 q 1708 586 1732 628 q 1685 493 1685 544 q 1708 400 1685 442 q 1775 344 1732 358 l 1775 240 q 1683 109 1744 175 q 1533 0 1621 43 l 1506 63 q 1583 267 1510 68 l 1583 703 q 1575 725 1583 714 q 1550 736 1567 736 q 1530 729 1538 736 q 1515 708 1522 722 l 1418 482 l 1328 482 l 1231 708 q 1216 729 1224 722 q 1196 736 1208 736 q 1171 725 1179 736 q 1163 703 1163 714 l 1163 267 q 1240 63 1236 68 l 1213 0 q 1063 109 1125 43 q 971 240 1001 175 l 971 344 q 1038 400 1014 358 q 1061 493 1061 442 q 1038 586 1061 544 q 971 642 1015 628 l 971 746 q 1063 867 1001 806 q 1213 972 1125 929 l 1257 910 l 1374 601 l 1489 910 l 1533 972 q 1683 867 1621 929 q 1775 746 1744 806 l 1775 642 z "},"°":{"ha":361,"x_min":69,"x_max":276,"o":"m 69 739 q 122 671 86 700 l 224 671 q 276 739 260 700 l 276 904 q 224 972 261 942 l 122 972 q 69 904 86 942 l 69 739 z "}}}
